<?xml version="1.0" encoding="UTF-8" standalone="no"?>
<!-- Created with Inkscape (http://www.inkscape.org/) -->

<svg
   xmlns:dc="http://purl.org/dc/elements/1.1/"
   xmlns:cc="http://creativecommons.org/ns#"
   xmlns:rdf="http://www.w3.org/1999/02/22-rdf-syntax-ns#"
   xmlns:svg="http://www.w3.org/2000/svg"
   xmlns="http://www.w3.org/2000/svg"
   xmlns:xlink="http://www.w3.org/1999/xlink"
   xmlns:sodipodi="http://sodipodi.sourceforge.net/DTD/sodipodi-0.dtd"
   xmlns:inkscape="http://www.inkscape.org/namespaces/inkscape"
   width="170"
   height="80"
   id="svg2"
   version="1.1"
   inkscape:version="0.48.4 r9939"
   sodipodi:docname="catalogue.svg"
   inkscape:export-xdpi="90"
   inkscape:export-ydpi="90">
  <defs
     id="defs4">
    <marker
       inkscape:stockid="Arrow1Send"
       orient="auto"
       refY="0.0"
       refX="0.0"
       id="Arrow1Send"
       style="overflow:visible;">
      <path
         id="path3852"
         d="M 0.0,0.0 L 5.0,-5.0 L -12.5,0.0 L 5.0,5.0 L 0.0,0.0 z "
         style="fill-rule:evenodd;stroke:#000000;stroke-width:1.0pt;"
         transform="scale(0.2) rotate(180) translate(6,0)" />
    </marker>
    <marker
       inkscape:stockid="Arrow1Sstart"
       orient="auto"
       refY="0.0"
       refX="0.0"
       id="Arrow1Sstart"
       style="overflow:visible">
      <path
         id="path3849"
         d="M 0.0,0.0 L 5.0,-5.0 L -12.5,0.0 L 5.0,5.0 L 0.0,0.0 z "
         style="fill-rule:evenodd;stroke:#000000;stroke-width:1.0pt"
         transform="scale(0.2) translate(6,0)" />
    </marker>
    <marker
       inkscape:stockid="Arrow1Lstart"
       orient="auto"
       refY="0.0"
       refX="0.0"
       id="Arrow1Lstart"
       style="overflow:visible">
      <path
         id="path3837"
         d="M 0.0,0.0 L 5.0,-5.0 L -12.5,0.0 L 5.0,5.0 L 0.0,0.0 z "
         style="fill-rule:evenodd;stroke:#000000;stroke-width:1.0pt"
         transform="scale(0.8) translate(12.5,0)" />
    </marker>
    <linearGradient
       id="linearGradient3811">
      <stop
         style="stop-color:#000000;stop-opacity:0.37777779;"
         offset="0"
         id="stop3813" />
      <stop
         style="stop-color:#000000;stop-opacity:0;"
         offset="1"
         id="stop3815" />
    </linearGradient>
    <inkscape:path-effect
       effect="spiro"
       id="path-effect3793"
       is_visible="true" />
    <inkscape:path-effect
       effect="spiro"
       id="path-effect4125"
       is_visible="true" />
    <inkscape:path-effect
       effect="spiro"
       id="path-effect4121"
       is_visible="true" />
    <linearGradient
       id="linearGradient4107">
      <stop
         style="stop-color:#828282;stop-opacity:1;"
         offset="0"
         id="stop4109" />
      <stop
         style="stop-color:#333333;stop-opacity:1;"
         offset="1"
         id="stop4111" />
    </linearGradient>
    <linearGradient
       inkscape:collect="always"
       id="linearGradient4026">
      <stop
         style="stop-color:#808080;stop-opacity:1;"
         offset="0"
         id="stop4028" />
      <stop
         style="stop-color:#808080;stop-opacity:0;"
         offset="1"
         id="stop4030" />
    </linearGradient>
    <inkscape:path-effect
       effect="spiro"
       id="path-effect4024"
       is_visible="true" />
    <inkscape:path-effect
       is_visible="true"
       id="path-effect4020"
       effect="spiro" />
    <inkscape:path-effect
       effect="spiro"
       id="path-effect4016"
       is_visible="true" />
    <inkscape:path-effect
       effect="spiro"
       id="path-effect3896"
       is_visible="true" />
    <filter
       id="filter3852"
       style="color-interpolation-filters:sRGB;"
       inkscape:label="Drop Shadow">
      <feFlood
         id="feFlood3854"
         flood-opacity="0.25"
         flood-color="rgb(0,0,0)"
         result="flood" />
      <feComposite
         id="feComposite3856"
         in2="SourceGraphic"
         in="flood"
         operator="in"
         result="composite1" />
      <feGaussianBlur
         id="feGaussianBlur3858"
         in="composite"
         stdDeviation="2.5"
         result="blur" />
      <feOffset
         id="feOffset3860"
         dx="2"
         dy="2"
         result="offset" />
      <feComposite
         id="feComposite3862"
         in2="offset"
         in="SourceGraphic"
         operator="over"
         result="composite2" />
    </filter>
    <linearGradient
       inkscape:collect="always"
       xlink:href="#linearGradient4026"
       id="linearGradient4032"
       x1="46.515018"
       y1="977.7145"
       x2="49.607309"
       y2="977.7145"
       gradientUnits="userSpaceOnUse" />
    <linearGradient
       inkscape:collect="always"
       xlink:href="#linearGradient4026"
       id="linearGradient4034"
       x1="45.144999"
       y1="975.37221"
       x2="48.23729"
       y2="975.37221"
       gradientUnits="userSpaceOnUse" />
    <linearGradient
       inkscape:collect="always"
       xlink:href="#linearGradient4026"
       id="linearGradient4036"
       x1="45.984688"
       y1="976.34448"
       x2="49.076979"
       y2="976.34448"
       gradientUnits="userSpaceOnUse" />
    <radialGradient
       inkscape:collect="always"
       xlink:href="#linearGradient3811"
       id="radialGradient3817"
       cx="5.3958149"
       cy="16.501635"
       fx="5.3958149"
       fy="16.501635"
       r="16.793785"
       gradientUnits="userSpaceOnUse"
       gradientTransform="matrix(1.2232969,-0.17119428,0.13859442,0.99034922,-3.4919031,1.0829862)" />
    <radialGradient
       inkscape:collect="always"
       xlink:href="#linearGradient3811"
       id="radialGradient3811"
       gradientUnits="userSpaceOnUse"
       gradientTransform="matrix(1.2232969,-0.17119428,0.13859442,0.99034922,-3.4919031,1.0829862)"
       cx="5.3958149"
       cy="16.501635"
       fx="5.3958149"
       fy="16.501635"
       r="16.793785" />
    <radialGradient
       inkscape:collect="always"
       xlink:href="#linearGradient3811"
       id="radialGradient3819"
       gradientUnits="userSpaceOnUse"
       gradientTransform="matrix(1.2232969,-0.17119428,0.13859442,0.99034922,-3.4919031,1.0829862)"
       cx="5.3958149"
       cy="16.501635"
       fx="5.3958149"
       fy="16.501635"
       r="16.793785" />
  </defs>
  <sodipodi:namedview
     id="base"
     pagecolor="#ffffff"
     bordercolor="#666666"
     borderopacity="1.0"
     inkscape:pageopacity="1"
     inkscape:pageshadow="2"
     inkscape:zoom="1.4142136"
     inkscape:cx="-31.180228"
     inkscape:cy="131.09097"
     inkscape:document-units="px"
     inkscape:current-layer="layer1"
     showgrid="false"
     borderlayer="true"
     inkscape:showpageshadow="false"
     inkscape:window-width="1768"
     inkscape:window-height="976"
     inkscape:window-x="476"
     inkscape:window-y="135"
     inkscape:window-maximized="0" />
  <metadata
     id="metadata7">
    <rdf:RDF>
      <cc:Work
         rdf:about="">
        <dc:format>image/svg+xml</dc:format>
        <dc:type
           rdf:resource="http://purl.org/dc/dcmitype/StillImage" />
        <dc:title></dc:title>
      </cc:Work>
    </rdf:RDF>
  </metadata>
  <g
     inkscape:label="Ebene 1"
     inkscape:groupmode="layer"
     id="layer1"
     transform="translate(0,-972.36218)">
    <g
       id="g3763"
       transform="matrix(1.0310135,0,0,1.0310135,-0.48451486,-29.054862)"
       style="filter:url(#filter3852)">
      <path
         style="fill:#ffffff;fill-opacity:1;stroke:#000000;stroke-width:1.66250002;stroke-linecap:round;stroke-linejoin:round;stroke-miterlimit:4;stroke-opacity:1;stroke-dasharray:none;stroke-dashoffset:0"
         d="M 25.75 2.625 C 15.463697 2.625 7.125 10.963697 7.125 21.25 C 7.125 29.572896 12.592095 36.61271 20.125 39 L 20.125 40.625 C 12.592095 43.01229 7.125 50.052104 7.125 58.375 C 7.125 68.661303 15.463697 77 25.75 77 C 36.036303 77 44.375 68.661303 44.375 58.375 C 44.375 50.052104 38.907905 43.01229 31.375 40.625 L 31.375 39 C 38.907905 36.61271 44.375 29.572896 44.375 21.25 C 44.375 10.963697 36.036303 2.625 25.75 2.625 z "
         transform="matrix(0.9699194,0,0,0.9699194,0.46994036,971.29382)"
         id="path3821" />
      <path
         sodipodi:type="arc"
         style="fill:#5f7c9a;fill-opacity:1;stroke:none"
         id="path3019"
         sodipodi:cx="12.020815"
         sodipodi:cy="13.001635"
         sodipodi:rx="16.793785"
         sodipodi:ry="16.793785"
         d="m 28.8146,13.001635 c 0,9.274951 -7.518834,16.793785 -16.793785,16.793785 -9.2749515,0 -16.7937852,-7.518834 -16.7937852,-16.793785 0,-9.2749518 7.5188337,-16.7937855 16.7937852,-16.7937855 9.274951,0 16.793785,7.5188337 16.793785,16.7937855 z"
         transform="translate(13.465527,978.78066)" />
      <path
         transform="translate(13.447427,978.78066)"
         d="m 28.8146,13.001635 c 0,9.274951 -7.518834,16.793785 -16.793785,16.793785 -9.2749515,0 -16.7937852,-7.518834 -16.7937852,-16.793785 0,-9.2749518 7.5188337,-16.7937855 16.7937852,-16.7937855 9.274951,0 16.793785,7.5188337 16.793785,16.7937855 z"
         sodipodi:ry="16.793785"
         sodipodi:rx="16.793785"
         sodipodi:cy="13.001635"
         sodipodi:cx="12.020815"
         id="path3789"
         style="fill:url(#radialGradient3811);fill-opacity:1;stroke:none"
         sodipodi:type="arc" />
      <path
         style="fill:#5f9a63;fill-opacity:1;stroke:none"
         d="m 41.216159,997.49756 c 0.151722,-0.4162 0.25602,-0.8503 0.375,-1.2812 -0.0073,-0.1373 0.0016,-0.2825 0,-0.4063 -0.01326,-1.0007 -0.439822,-1.954 -0.625,-2.9375 -0.238258,-1.2654 -0.325464,-2.5602 -0.625,-3.81246 -0.208452,-0.87149 -0.5076,-1.71989 -0.8125,-2.5625 -0.22514,-0.62219 -0.540021,-1.21628 -0.75,-1.84375 -0.246344,-0.73613 -0.28186,-1.53915 -0.59375,-2.25 -0.439951,-1.00272 -1.076581,-1.91188 -1.78125,-2.75 -0.621196,-0.73884 -1.351157,-1.39175 -2.125,-1.96875 -0.584318,-0.43569 -1.19462,-0.8636 -1.875,-1.125 -0.911541,-0.35022 -1.904234,-0.6682 -2.875,-0.5625 -0.519427,0.0566 -0.940406,0.46406 -1.4375,0.625 -0.831987,0.26936 -1.734607,0.28081 -2.5625,0.5625 -0.37056,0.12608 -0.713189,0.32338 -1.0625,0.5 -0.507461,0.25658 -1.001453,0.539 -1.5,0.8125 -0.376107,0.20633 -0.841457,0.30308 -1.125,0.625 -0.296616,0.33676 -0.685478,0.84136 -0.5,1.25 0.265276,0.58445 1.202774,0.45578 1.8125,0.65625 0.661029,0.21734 1.49544,0.11457 2,0.59375 0.353633,0.33584 0.05203,1.18221 0.5,1.375 0.393164,0.16921 0.843237,-0.24565 1.1875,-0.5 0.237627,-0.17556 0.345128,-0.48741 0.5625,-0.6875 0.263321,-0.24239 0.562035,-0.45138 0.875,-0.625 0.433031,-0.24023 0.98047,-0.26321 1.375,-0.5625 0.483959,-0.36712 0.529044,-1.31988 1.125,-1.4375 0.594806,-0.11739 1.421106,0.31669 1.5625,0.90625 0.107789,0.44944 -0.421756,0.83087 -0.75,1.15625 -0.246252,0.2441 -0.625586,0.32163 -0.875,0.5625 -0.291301,0.28132 -0.501342,0.64036 -0.6875,1 -0.193893,0.37459 -0.218646,0.82693 -0.4375,1.1875 -0.175969,0.28992 -0.41897,0.54286 -0.6875,0.75 -0.280604,0.21646 -0.583526,0.48282 -0.9375,0.5 -0.381147,0.0185 -0.703994,-0.30678 -1.0625,-0.4375 -0.287828,-0.10495 -0.5799,-0.36356 -0.875,-0.28125 -0.305825,0.0853 -0.360083,0.54375 -0.625,0.71875 -1.752778,1.15787 -5.557071,1.83788 -6,1.9375 -6.145972,4.07326 -4.786325,4.76346 1,2.68746 0.73778,-0.24866 3.464293,1.3745 5.0625,0.7813 0.673178,-0.2499 0.656948,-1.62614 1.375,-1.62501 1.354176,0.002 1.361026,3.57971 2.625,3.09371 1.030585,-0.3962 -0.810246,-2.4467 -0.125,-3.31246 0.34984,-0.442 1.159235,-0.0778 1.65625,-0.34375 0.980636,-0.52473 1.295883,-2.613 2.375,-2.34375 0.790291,0.19718 0.90237,1.5502 0.71875,2.34375 -0.157419,0.68032 -1.527717,0.83882 -1.4375,1.53121 0.203277,1.5602 4.149148,0.9337 4,2.5 -0.121036,1.2711 -2.30574,1.1495 -3.5625,1.375 -1.480568,0.2657 -3.036364,0.1045 -4.53125,-0.062 -1.52891,-0.1711 -2.961565,-0.9302 -4.5,-0.9375 -1.602434,-0.01 -5.296621,0.2759 -6.416109,1.4225 -0.771714,0.7904 -1.131266,2.303 -0.5625,3.25 0.740973,1.2337 2.932199,0.4942 4.09375,1.3438 0.891831,0.6523 1.696277,1.60924 1.9375,2.68744 0.381457,1.7051 -2.212685,3.9292 -0.96875,5.1562 0.851293,0.8397 4.103451,-0.7677 5.228609,-1.1725 1.962906,-0.7062 2.632611,-1.7973 4.045121,-3.3324 1.511716,-1.6428 2.171575,-4.74354 4.142379,-5.79254 1.690975,-0.9 4.060119,2.0544 5.65625,1.0625 z"
         id="path3791"
         inkscape:connector-curvature="0"
         sodipodi:nodetypes="cccsssssssscssssssssccsscsssssscsssscccccsssssscccsscssssccc" />
      <path
         transform="translate(13.465527,1014.8219)"
         d="m 28.8146,13.001635 c 0,9.274951 -7.518834,16.793785 -16.793785,16.793785 -9.2749515,0 -16.7937852,-7.518834 -16.7937852,-16.793785 0,-9.2749518 7.5188337,-16.7937855 16.7937852,-16.7937855 9.274951,0 16.793785,7.5188337 16.793785,16.7937855 z"
         sodipodi:ry="16.793785"
         sodipodi:rx="16.793785"
         sodipodi:cy="13.001635"
         sodipodi:cx="12.020815"
         id="path3813"
         style="fill:#5f7c9a;fill-opacity:1;stroke:none"
         sodipodi:type="arc" />
      <path
         sodipodi:type="arc"
         style="fill:url(#radialGradient3819);fill-opacity:1;stroke:none"
         id="path3815"
         sodipodi:cx="12.020815"
         sodipodi:cy="13.001635"
         sodipodi:rx="16.793785"
         sodipodi:ry="16.793785"
         d="m 28.8146,13.001635 c 0,9.274951 -7.518834,16.793785 -16.793785,16.793785 -9.2749515,0 -16.7937852,-7.518834 -16.7937852,-16.793785 0,-9.2749518 7.5188337,-16.7937855 16.7937852,-16.7937855 9.274951,0 16.793785,7.5188337 16.793785,16.7937855 z"
         transform="translate(13.447427,1014.8219)" />
      <path
         sodipodi:nodetypes="cccsssssssscssssssssccsscsssssscsssscccccsssssscccsscssssccc"
         inkscape:connector-curvature="0"
         id="path3817"
         d="m 41.216159,1033.5388 c 0.151722,-0.4162 0.25602,-0.8503 0.375,-1.2812 -0.0073,-0.1373 0.0016,-0.2825 0,-0.4063 -0.01326,-1.0007 -0.439822,-1.954 -0.625,-2.9375 -0.238258,-1.2654 -0.325464,-2.5602 -0.625,-3.8125 -0.208452,-0.8714 -0.5076,-1.7198 -0.8125,-2.5625 -0.22514,-0.6221 -0.540021,-1.2162 -0.75,-1.8437 -0.246344,-0.7361 -0.28186,-1.5392 -0.59375,-2.25 -0.439951,-1.0027 -1.076581,-1.9119 -1.78125,-2.75 -0.621196,-0.7388 -1.351157,-1.3918 -2.125,-1.9688 -0.584318,-0.4356 -1.19462,-0.8636 -1.875,-1.125 -0.911541,-0.3502 -1.904234,-0.6682 -2.875,-0.5625 -0.519427,0.057 -0.940406,0.4641 -1.4375,0.625 -0.831987,0.2694 -1.734607,0.2809 -2.5625,0.5625 -0.37056,0.1261 -0.713189,0.3234 -1.0625,0.5 -0.507461,0.2566 -1.001453,0.539 -1.5,0.8125 -0.376107,0.2064 -0.841457,0.3031 -1.125,0.625 -0.296616,0.3368 -0.685478,0.8414 -0.5,1.25 0.265276,0.5845 1.202774,0.4558 1.8125,0.6563 0.661029,0.2173 1.49544,0.1146 2,0.5937 0.353633,0.3359 0.05203,1.1823 0.5,1.375 0.393164,0.1693 0.843237,-0.2456 1.1875,-0.5 0.237627,-0.1755 0.345128,-0.4874 0.5625,-0.6875 0.263321,-0.2423 0.562035,-0.4513 0.875,-0.625 0.433031,-0.2402 0.98047,-0.2632 1.375,-0.5625 0.483959,-0.3671 0.529044,-1.3198 1.125,-1.4375 0.594806,-0.1173 1.421106,0.3167 1.5625,0.9063 0.107789,0.4494 -0.421756,0.8309 -0.75,1.1562 -0.246252,0.2441 -0.625586,0.3217 -0.875,0.5625 -0.291301,0.2814 -0.501342,0.6404 -0.6875,1 -0.193893,0.3746 -0.218646,0.827 -0.4375,1.1875 -0.175969,0.29 -0.41897,0.5429 -0.6875,0.75 -0.280604,0.2165 -0.583526,0.4829 -0.9375,0.5 -0.381147,0.019 -0.703994,-0.3067 -1.0625,-0.4375 -0.287828,-0.1049 -0.5799,-0.3635 -0.875,-0.2812 -0.305825,0.085 -0.360083,0.5437 -0.625,0.7187 -1.752778,1.1579 -5.557071,1.8379 -6,1.9375 -6.145972,4.0733 -4.786325,4.7635 1,2.6875 0.73778,-0.2487 3.464293,1.3745 5.0625,0.7813 0.673178,-0.2499 0.656948,-1.6261 1.375,-1.625 1.354176,0 1.361026,3.5797 2.625,3.0937 1.030585,-0.3962 -0.810246,-2.4467 -0.125,-3.3125 0.34984,-0.442 1.159235,-0.078 1.65625,-0.3437 0.980636,-0.5247 1.295883,-2.613 2.375,-2.3438 0.790291,0.1972 0.90237,1.5502 0.71875,2.3438 -0.157419,0.6803 -1.527717,0.8388 -1.4375,1.5312 0.203277,1.5602 4.149148,0.9337 4,2.5 -0.121036,1.2711 -2.30574,1.1495 -3.5625,1.375 -1.480568,0.2657 -3.036364,0.1045 -4.53125,-0.062 -1.52891,-0.1711 -2.961565,-0.9302 -4.5,-0.9375 -1.602434,-0.01 -5.296621,0.2759 -6.416109,1.4225 -0.771714,0.7904 -1.131266,2.303 -0.5625,3.25 0.740973,1.2337 2.932199,0.4942 4.09375,1.3438 0.891831,0.6523 1.696277,1.6092 1.9375,2.6875 0.381457,1.7051 -2.212685,3.9292 -0.96875,5.1562 0.851293,0.8397 4.103451,-0.7677 5.228609,-1.1725 1.962906,-0.7062 2.632611,-1.7973 4.045121,-3.3324 1.511716,-1.6429 2.171575,-4.7436 4.142379,-5.7926 1.690975,-0.9 4.060119,2.0544 5.65625,1.0625 z"
         style="fill:#5f9a63;fill-opacity:1;stroke:none" />
      <g
         id="g4835">
        <path
           style="font-size:medium;font-style:normal;font-variant:normal;font-weight:normal;font-stretch:normal;text-indent:0;text-align:start;text-decoration:none;line-height:normal;letter-spacing:normal;word-spacing:normal;text-transform:none;direction:ltr;block-progression:tb;writing-mode:lr-tb;text-anchor:start;baseline-shift:baseline;color:#000000;fill:#ffffff;fill-opacity:1;stroke:#000000;stroke-width:1.25;stroke-miterlimit:4;stroke-opacity:1;stroke-dasharray:none;marker:none;visibility:visible;display:inline;overflow:visible;enable-background:accumulate;font-family:Sans;-inkscape-font-specification:Sans"
           d="m 25.75,14.5625 c -1.670419,5.787353 -3.480391,12.180003 -5,17.5 l 3.333333,-2.5 0,20.5 -3.333333,-2.5 c 1.629499,5.91807 3.313225,11.617912 5,17.5 1.743661,-5.865792 3.313766,-11.598181 5,-17.5 l -3.333333,2.5 0,-20.5 3.333333,2.5 c -1.600415,-5.783524 -3.476112,-12.17058 -5,-17.5 z"
           transform="matrix(0.9699194,0,0,0.9699194,0.46994036,971.29382)"
           id="path3831"
           inkscape:connector-curvature="0"
           sodipodi:nodetypes="ccccccccccc" />
        <text
           xml:space="preserve"
           style="font-size:15.51871014px;font-style:normal;font-variant:normal;font-weight:normal;font-stretch:normal;line-height:125%;letter-spacing:0px;word-spacing:0px;fill:#000000;fill-opacity:1;stroke:#ffffff;stroke-width:0.60619962;stroke-miterlimit:4;stroke-opacity:1;stroke-dasharray:none;font-family:Helvetica;-inkscape-font-specification:Helvetica"
           x="23.126051"
           y="1016.1967"
           id="text4847"
           sodipodi:linespacing="125%"><tspan
             sodipodi:role="line"
             id="tspan4849"
             x="23.126051"
             y="1016.1967"
             style="font-size:17.4585495px;font-weight:bold;stroke:#ffffff;stroke-width:0.60619962;stroke-miterlimit:4;stroke-opacity:1;stroke-dasharray:none;-inkscape-font-specification:Helvetica Bold">?</tspan></text>
      </g>
    </g>
    <text
       xml:space="preserve"
       style="font-size:24px;font-style:normal;font-weight:normal;text-align:end;line-height:125%;letter-spacing:0px;word-spacing:0px;text-anchor:end;fill:#000000;fill-opacity:1;stroke:none;font-family:Sans"
       x="160.61426"
       y="1014.5334"
       id="text3759"
       sodipodi:linespacing="125%"><tspan
         sodipodi:role="line"
         id="tspan3761"
         x="160.61426"
         y="1014.5334">Simulation</tspan><tspan
         sodipodi:role="line"
         x="160.61426"
         y="1044.5334"
         id="tspan3017">Picker</tspan></text>
  </g>
</svg>
