<?xml version="1.0" encoding="UTF-8" standalone="no"?>
<!-- Created with Inkscape (http://www.inkscape.org/) -->

<svg
   xmlns:dc="http://purl.org/dc/elements/1.1/"
   xmlns:cc="http://creativecommons.org/ns#"
   xmlns:rdf="http://www.w3.org/1999/02/22-rdf-syntax-ns#"
   xmlns:svg="http://www.w3.org/2000/svg"
   xmlns="http://www.w3.org/2000/svg"
   xmlns:sodipodi="http://sodipodi.sourceforge.net/DTD/sodipodi-0.dtd"
   xmlns:inkscape="http://www.inkscape.org/namespaces/inkscape"
   width="16.650587"
   height="16.650587"
   id="svg2"
   version="1.1"
   inkscape:version="0.48.4 r9939"
   sodipodi:docname="selectedIcon.svg"
   inkscape:export-filename="C:\work\wirecloud\simulation_loader\img\selectedIcon.png"
   inkscape:export-xdpi="90"
   inkscape:export-ydpi="90">
  <defs
     id="defs4">
    <linearGradient
       id="linearGradient3755">
      <stop
         style="stop-color:#91bce0;stop-opacity:1;"
         offset="0"
         id="stop3757" />
      <stop
         style="stop-color:#5b9bd1;stop-opacity:1;"
         offset="1"
         id="stop3759" />
    </linearGradient>
    <filter
       id="filter3774"
       inkscape:label="Drop Shadow"
       color-interpolation-filters="sRGB">
      <feFlood
         id="feFlood3776"
         flood-opacity="0.35"
         flood-color="rgb(0,0,0)"
         result="flood" />
      <feComposite
         id="feComposite3778"
         in2="SourceGraphic"
         in="flood"
         operator="in"
         result="composite1" />
      <feGaussianBlur
         id="feGaussianBlur3780"
         stdDeviation="1.5"
         result="blur" />
      <feOffset
         id="feOffset3782"
         dx="2"
         dy="2"
         result="offset" />
      <feComposite
         id="feComposite3784"
         in2="offset"
         in="SourceGraphic"
         operator="over"
         result="composite2" />
    </filter>
    <linearGradient
       id="linearGradient3811">
      <stop
         style="stop-color:#000000;stop-opacity:0.37777779;"
         offset="0"
         id="stop3813" />
      <stop
         style="stop-color:#000000;stop-opacity:0;"
         offset="1"
         id="stop3815" />
    </linearGradient>
    <filter
       id="filter4074"
       inkscape:label="Drop Shadow"
       color-interpolation-filters="sRGB">
      <feFlood
         id="feFlood4076"
         flood-opacity="0.35"
         flood-color="rgb(0,0,0)"
         result="flood" />
      <feComposite
         id="feComposite4078"
         in2="SourceGraphic"
         in="flood"
         operator="in"
         result="composite1" />
      <feGaussianBlur
         id="feGaussianBlur4080"
         stdDeviation="1.5"
         result="blur" />
      <feOffset
         id="feOffset4082"
         dx="-3"
         dy="-1"
         result="offset" />
      <feComposite
         id="feComposite4084"
         in2="offset"
         in="SourceGraphic"
         operator="over"
         result="composite2" />
    </filter>
  </defs>
  <sodipodi:namedview
     id="base"
     pagecolor="#ffffff"
     bordercolor="#666666"
     borderopacity="1.0"
     inkscape:pageopacity="0.0"
     inkscape:pageshadow="2"
     inkscape:zoom="2.8284271"
     inkscape:cx="78.30187"
     inkscape:cy="-62.351209"
     inkscape:document-units="px"
     inkscape:current-layer="layer1"
     showgrid="false"
     inkscape:showpageshadow="false"
     inkscape:window-width="2560"
     inkscape:window-height="1378"
     inkscape:window-x="-8"
     inkscape:window-y="-8"
     inkscape:window-maximized="1"
     fit-margin-top="1"
     fit-margin-left="1"
     fit-margin-right="1"
     fit-margin-bottom="1" />
  <metadata
     id="metadata7">
    <rdf:RDF>
      <cc:Work
         rdf:about="">
        <dc:format>image/svg+xml</dc:format>
        <dc:type
           rdf:resource="http://purl.org/dc/dcmitype/StillImage" />
        <dc:title></dc:title>
      </cc:Work>
    </rdf:RDF>
  </metadata>
  <g
     inkscape:label="Ebene 1"
     inkscape:groupmode="layer"
     id="layer1"
     transform="translate(-3.7152196,-1036.1002)">
    <g
       id="g4086"
       transform="translate(4.065864,0)">
      <g
         transform="matrix(0.39599737,0,0,0.39599737,-16.662749,632.4531)"
         id="g3946">
        <path
           sodipodi:type="arc"
           style="fill:#5f7c9a;fill-opacity:1;stroke:none;filter:url(#filter3852)"
           id="path3019"
           sodipodi:cx="12.020815"
           sodipodi:cy="13.001635"
           sodipodi:rx="16.793785"
           sodipodi:ry="16.793785"
           d="m 28.8146,13.001635 c 0,9.274951 -7.518834,16.793785 -16.793785,16.793785 -9.2749515,0 -16.7937852,-7.518834 -16.7937852,-16.793785 0,-9.2749518 7.5188337,-16.7937855 16.7937852,-16.7937855 9.274951,0 16.793785,7.5188337 16.793785,16.7937855 z"
           transform="matrix(1.0310135,0,0,1.0310135,49.841105,1026.9365)" />
        <path
           transform="matrix(1.0310135,0,0,1.0310135,49.822443,1026.9365)"
           d="m 28.8146,13.001635 c 0,9.274951 -7.518834,16.793785 -16.793785,16.793785 -9.2749515,0 -16.7937852,-7.518834 -16.7937852,-16.793785 0,-9.2749518 7.5188337,-16.7937855 16.7937852,-16.7937855 9.274951,0 16.793785,7.5188337 16.793785,16.7937855 z"
           sodipodi:ry="16.793785"
           sodipodi:rx="16.793785"
           sodipodi:cy="13.001635"
           sodipodi:cx="12.020815"
           id="path3789"
           style="fill:#428bca;fill-opacity:1;stroke:#23527b;stroke-width:2.29622602;stroke-miterlimit:4;stroke-opacity:1;stroke-dasharray:none;filter:url(#filter3852)"
           sodipodi:type="arc" />
        <path
           style="fill:#23527b;fill-opacity:1;stroke:none;filter:url(#filter3852)"
           d="m 78.452381,1046.2339 c 0.156427,-0.4291 0.26396,-0.8767 0.38663,-1.321 -0.0075,-0.1415 0.0016,-0.2912 0,-0.4189 -0.01367,-1.0317 -0.453463,-2.0146 -0.644384,-3.0286 -0.245647,-1.3046 -0.335558,-2.6396 -0.644383,-3.9307 -0.214917,-0.8985 -0.523343,-1.7732 -0.837699,-2.6419 -0.232122,-0.6415 -0.556769,-1.254 -0.77326,-1.901 -0.253984,-0.7589 -0.290601,-1.5868 -0.612164,-2.3197 -0.453596,-1.0339 -1.10997,-1.9712 -1.836493,-2.8353 -0.640461,-0.7618 -1.393061,-1.4349 -2.190904,-2.0298 -0.602439,-0.4492 -1.231669,-0.8904 -1.93315,-1.1599 -0.939811,-0.3611 -1.963291,-0.6889 -2.964164,-0.58 -0.535536,0.058 -0.969571,0.4785 -1.482082,0.6444 -0.857789,0.2777 -1.788403,0.2895 -2.641972,0.58 -0.382052,0.1299 -0.735307,0.3334 -1.095452,0.5155 -0.523199,0.2645 -1.032511,0.5557 -1.54652,0.8377 -0.387771,0.2127 -0.867553,0.3124 -1.15989,0.6443 -0.305815,0.3472 -0.706737,0.8675 -0.515507,1.2888 0.273503,0.6026 1.240076,0.4699 1.868712,0.6766 0.68153,0.2241 1.541819,0.1181 2.062027,0.6122 0.364601,0.3462 0.05364,1.2189 0.515507,1.4176 0.405357,0.1745 0.869389,-0.2532 1.224328,-0.5155 0.244997,-0.181 0.355832,-0.5025 0.579946,-0.7088 0.271487,-0.2499 0.579465,-0.4654 0.902136,-0.6444 0.446461,-0.2477 1.010878,-0.2714 1.417644,-0.5799 0.498968,-0.3785 0.545451,-1.3608 1.15989,-1.4821 0.613253,-0.121 1.46518,0.3265 1.610959,0.9343 0.111132,0.4634 -0.434836,0.8567 -0.77326,1.1921 -0.25389,0.2517 -0.644988,0.3317 -0.902137,0.58 -0.300335,0.29 -0.516891,0.6602 -0.708822,1.031 -0.199906,0.3862 -0.225427,0.8526 -0.451068,1.2243 -0.181427,0.2989 -0.431964,0.5597 -0.708822,0.7733 -0.289307,0.2232 -0.601623,0.4978 -0.966575,0.5155 -0.392968,0.019 -0.725828,-0.3163 -1.095452,-0.4511 -0.296755,-0.1082 -0.597885,-0.3748 -0.902137,-0.2899 -0.31531,0.088 -0.37125,0.5606 -0.644383,0.741 -1.807138,1.1938 -5.729416,1.8949 -6.186081,1.9976 -6.33658,4.1996 -4.934766,4.9112 1.031013,2.7708 0.760661,-0.2564 3.571733,1.4171 5.219506,0.8055 0.694056,-0.2576 0.677322,-1.6765 1.417643,-1.6754 1.396174,0 1.403237,3.6908 2.706411,3.1897 1.062547,-0.4085 -0.835375,-2.5226 -0.128877,-3.4152 0.36069,-0.4557 1.195187,-0.08 1.707616,-0.3544 1.011049,-0.541 1.336073,-2.6941 2.448657,-2.4165 0.814801,0.2033 0.930356,1.5983 0.741041,2.4165 -0.162301,0.7014 -1.575097,0.8648 -1.482082,1.5787 0.209582,1.6086 4.277828,0.9626 4.124054,2.5775 -0.124789,1.3105 -2.377249,1.1852 -3.672985,1.4177 -1.526486,0.2739 -3.130532,0.1077 -4.67178,-0.064 -1.576327,-0.1764 -3.053414,-0.959 -4.639561,-0.9665 -1.652131,-0.01 -5.460888,0.2844 -6.615095,1.4666 -0.795647,0.8149 -1.16635,2.3744 -0.579945,3.3508 0.763954,1.2719 3.023137,0.5095 4.220712,1.3854 0.919489,0.6726 1.748884,1.6592 1.997588,2.7709 0.393288,1.758 -2.281308,4.0511 -0.998794,5.3161 0.877695,0.8657 4.230713,-0.7915 5.390766,-1.2089 2.023783,-0.7281 2.714258,-1.853 4.170575,-3.4357 1.558599,-1.6939 2.238923,-4.8907 4.270848,-5.9723 1.743418,-0.9279 4.186038,2.1182 5.831671,1.0955 z"
           id="path3791"
           inkscape:connector-curvature="0"
           sodipodi:nodetypes="cccsssssssscssssssssccsscsssssscsssscccccsssssscccsscssssccc" />
      </g>
      <path
         transform="matrix(0.70710678,-0.70710678,0.70710678,0.70710678,-747.21102,317.31838)"
         sodipodi:nodetypes="cccc"
         inkscape:connector-curvature="0"
         id="rect3982"
         d="m 22.666469,1050.8629 0,-7.0711 c -9.409921,9.4101 2.401372,-2.4015 -7.159456,7.1595 z"
         style="fill:#ffffff;fill-opacity:1;stroke:none;filter:url(#filter4074)" />
    </g>
  </g>
</svg>
