<?xml version="1.0" encoding="UTF-8" standalone="no"?>
<!-- Created with Inkscape (http://www.inkscape.org/) -->

<svg
   xmlns:dc="http://purl.org/dc/elements/1.1/"
   xmlns:cc="http://creativecommons.org/ns#"
   xmlns:rdf="http://www.w3.org/1999/02/22-rdf-syntax-ns#"
   xmlns:svg="http://www.w3.org/2000/svg"
   xmlns="http://www.w3.org/2000/svg"
   xmlns:xlink="http://www.w3.org/1999/xlink"
   xmlns:sodipodi="http://sodipodi.sourceforge.net/DTD/sodipodi-0.dtd"
   xmlns:inkscape="http://www.inkscape.org/namespaces/inkscape"
   width="170"
   height="80"
   id="svg2"
   version="1.1"
   inkscape:version="0.48.4 r9939"
   sodipodi:docname="catalogue.svg"
   inkscape:export-filename="C:\work\wirecloud\worldstate_loader\img\catalogue.png"
   inkscape:export-xdpi="90"
   inkscape:export-ydpi="90">
  <defs
     id="defs4">
    <linearGradient
       id="linearGradient3811">
      <stop
         style="stop-color:#000000;stop-opacity:0.37777779;"
         offset="0"
         id="stop3813" />
      <stop
         style="stop-color:#000000;stop-opacity:0;"
         offset="1"
         id="stop3815" />
    </linearGradient>
    <inkscape:path-effect
       effect="spiro"
       id="path-effect3793"
       is_visible="true" />
    <inkscape:path-effect
       effect="spiro"
       id="path-effect4125"
       is_visible="true" />
    <inkscape:path-effect
       effect="spiro"
       id="path-effect4121"
       is_visible="true" />
    <linearGradient
       id="linearGradient4107">
      <stop
         style="stop-color:#828282;stop-opacity:1;"
         offset="0"
         id="stop4109" />
      <stop
         style="stop-color:#333333;stop-opacity:1;"
         offset="1"
         id="stop4111" />
    </linearGradient>
    <linearGradient
       inkscape:collect="always"
       id="linearGradient4026">
      <stop
         style="stop-color:#808080;stop-opacity:1;"
         offset="0"
         id="stop4028" />
      <stop
         style="stop-color:#808080;stop-opacity:0;"
         offset="1"
         id="stop4030" />
    </linearGradient>
    <inkscape:path-effect
       effect="spiro"
       id="path-effect4024"
       is_visible="true" />
    <inkscape:path-effect
       is_visible="true"
       id="path-effect4020"
       effect="spiro" />
    <inkscape:path-effect
       effect="spiro"
       id="path-effect4016"
       is_visible="true" />
    <inkscape:path-effect
       effect="spiro"
       id="path-effect3896"
       is_visible="true" />
    <filter
       id="filter3852"
       style="color-interpolation-filters:sRGB;"
       inkscape:label="Drop Shadow">
      <feFlood
         id="feFlood3854"
         flood-opacity="0.25"
         flood-color="rgb(0,0,0)"
         result="flood" />
      <feComposite
         id="feComposite3856"
         in2="SourceGraphic"
         in="flood"
         operator="in"
         result="composite1" />
      <feGaussianBlur
         id="feGaussianBlur3858"
         in="composite"
         stdDeviation="2.5"
         result="blur" />
      <feOffset
         id="feOffset3860"
         dx="2"
         dy="2"
         result="offset" />
      <feComposite
         id="feComposite3862"
         in2="offset"
         in="SourceGraphic"
         operator="over"
         result="composite2" />
    </filter>
    <linearGradient
       inkscape:collect="always"
       xlink:href="#linearGradient4026"
       id="linearGradient4032"
       x1="46.515018"
       y1="977.7145"
       x2="49.607309"
       y2="977.7145"
       gradientUnits="userSpaceOnUse" />
    <linearGradient
       inkscape:collect="always"
       xlink:href="#linearGradient4026"
       id="linearGradient4034"
       x1="45.144999"
       y1="975.37221"
       x2="48.23729"
       y2="975.37221"
       gradientUnits="userSpaceOnUse" />
    <linearGradient
       inkscape:collect="always"
       xlink:href="#linearGradient4026"
       id="linearGradient4036"
       x1="45.984688"
       y1="976.34448"
       x2="49.076979"
       y2="976.34448"
       gradientUnits="userSpaceOnUse" />
    <radialGradient
       inkscape:collect="always"
       xlink:href="#linearGradient3811"
       id="radialGradient3817"
       cx="5.3958149"
       cy="16.501635"
       fx="5.3958149"
       fy="16.501635"
       r="16.793785"
       gradientUnits="userSpaceOnUse"
       gradientTransform="matrix(1.2232969,-0.17119428,0.13859442,0.99034922,-3.4919031,1.0829862)" />
  </defs>
  <sodipodi:namedview
     id="base"
     pagecolor="#ffffff"
     bordercolor="#666666"
     borderopacity="1.0"
     inkscape:pageopacity="1"
     inkscape:pageshadow="2"
     inkscape:zoom="2.0000001"
     inkscape:cx="158.37952"
     inkscape:cy="-46.48414"
     inkscape:document-units="px"
     inkscape:current-layer="layer1"
     showgrid="false"
     borderlayer="true"
     inkscape:showpageshadow="false"
     inkscape:window-width="1768"
     inkscape:window-height="976"
     inkscape:window-x="476"
     inkscape:window-y="135"
     inkscape:window-maximized="0" />
  <metadata
     id="metadata7">
    <rdf:RDF>
      <cc:Work
         rdf:about="">
        <dc:format>image/svg+xml</dc:format>
        <dc:type
           rdf:resource="http://purl.org/dc/dcmitype/StillImage" />
        <dc:title></dc:title>
      </cc:Work>
    </rdf:RDF>
  </metadata>
  <g
     inkscape:label="Ebene 1"
     inkscape:groupmode="layer"
     id="layer1"
     transform="translate(0,-972.36218)">
    <g
       id="g3763"
       transform="matrix(1.0310135,0,0,1.0310135,-0.48451486,-29.054862)"
       style="filter:url(#filter3852)">
      <path
         sodipodi:type="arc"
         style="fill:#5f7c9a;fill-opacity:1;stroke:none"
         id="path3019"
         sodipodi:cx="12.020815"
         sodipodi:cy="13.001635"
         sodipodi:rx="16.793785"
         sodipodi:ry="16.793785"
         d="m 28.8146,13.001635 c 0,9.274951 -7.518834,16.793785 -16.793785,16.793785 -9.2749515,0 -16.7937852,-7.518834 -16.7937852,-16.793785 0,-9.2749518 7.5188337,-16.7937855 16.7937852,-16.7937855 9.274951,0 16.793785,7.5188337 16.793785,16.7937855 z"
         transform="translate(12.374368,988.9978)" />
      <path
         transform="translate(12.356268,988.9978)"
         d="m 28.8146,13.001635 c 0,9.274951 -7.518834,16.793785 -16.793785,16.793785 -9.2749515,0 -16.7937852,-7.518834 -16.7937852,-16.793785 0,-9.2749518 7.5188337,-16.7937855 16.7937852,-16.7937855 9.274951,0 16.793785,7.5188337 16.793785,16.7937855 z"
         sodipodi:ry="16.793785"
         sodipodi:rx="16.793785"
         sodipodi:cy="13.001635"
         sodipodi:cx="12.020815"
         id="path3789"
         style="fill:url(#radialGradient3817);fill-opacity:1;stroke:none"
         sodipodi:type="arc" />
      <path
         style="fill:#5f9a63;fill-opacity:1;stroke:none"
         d="m 40.125,1007.7147 c 0.151722,-0.4162 0.25602,-0.8503 0.375,-1.2812 -0.0073,-0.1373 0.0016,-0.2825 0,-0.4063 -0.01326,-1.0007 -0.439822,-1.954 -0.625,-2.9375 -0.238258,-1.2654 -0.325464,-2.5602 -0.625,-3.81246 -0.208452,-0.87149 -0.5076,-1.71989 -0.8125,-2.5625 -0.22514,-0.62219 -0.540021,-1.21628 -0.75,-1.84375 -0.246344,-0.73613 -0.28186,-1.53915 -0.59375,-2.25 -0.439951,-1.00272 -1.076581,-1.91188 -1.78125,-2.75 -0.621196,-0.73884 -1.351157,-1.39175 -2.125,-1.96875 -0.584318,-0.43569 -1.19462,-0.8636 -1.875,-1.125 -0.911541,-0.35022 -1.904234,-0.6682 -2.875,-0.5625 -0.519427,0.0566 -0.940406,0.46406 -1.4375,0.625 -0.831987,0.26936 -1.734607,0.28081 -2.5625,0.5625 -0.37056,0.12608 -0.713189,0.32338 -1.0625,0.5 -0.507461,0.25658 -1.001453,0.539 -1.5,0.8125 -0.376107,0.20633 -0.841457,0.30308 -1.125,0.625 -0.296616,0.33676 -0.685478,0.84136 -0.5,1.25 0.265276,0.58445 1.202774,0.45578 1.8125,0.65625 0.661029,0.21734 1.49544,0.11457 2,0.59375 0.353633,0.33584 0.05203,1.18221 0.5,1.375 0.393164,0.16921 0.843237,-0.24565 1.1875,-0.5 0.237627,-0.17556 0.345128,-0.48741 0.5625,-0.6875 0.263321,-0.24239 0.562035,-0.45138 0.875,-0.625 0.433031,-0.24023 0.98047,-0.26321 1.375,-0.5625 0.483959,-0.36712 0.529044,-1.31988 1.125,-1.4375 0.594806,-0.11739 1.421106,0.31669 1.5625,0.90625 0.107789,0.44944 -0.421756,0.83087 -0.75,1.15625 -0.246252,0.2441 -0.625586,0.32163 -0.875,0.5625 -0.291301,0.28132 -0.501342,0.64036 -0.6875,1 -0.193893,0.37459 -0.218646,0.82693 -0.4375,1.1875 -0.175969,0.28992 -0.41897,0.54286 -0.6875,0.75 -0.280604,0.21646 -0.583526,0.48282 -0.9375,0.5 -0.381147,0.0185 -0.703994,-0.30678 -1.0625,-0.4375 -0.287828,-0.10495 -0.5799,-0.36356 -0.875,-0.28125 -0.305825,0.0853 -0.360083,0.54375 -0.625,0.71875 -1.752778,1.15787 -5.557071,1.83788 -6,1.9375 -6.145972,4.07326 -4.786325,4.76346 1,2.68746 0.73778,-0.24866 3.464293,1.3745 5.0625,0.7813 0.673178,-0.2499 0.656948,-1.62614 1.375,-1.62501 1.354176,0.002 1.361026,3.57971 2.625,3.09371 1.030585,-0.3962 -0.810246,-2.4467 -0.125,-3.31246 0.34984,-0.442 1.159235,-0.0778 1.65625,-0.34375 0.980636,-0.52473 1.295883,-2.613 2.375,-2.34375 0.790291,0.19718 0.90237,1.5502 0.71875,2.34375 -0.157419,0.68032 -1.527717,0.83882 -1.4375,1.53121 0.203277,1.5602 4.149148,0.9337 4,2.5 -0.121036,1.2711 -2.30574,1.1495 -3.5625,1.375 -1.480568,0.2657 -3.036364,0.1045 -4.53125,-0.062 -1.52891,-0.1711 -2.961565,-0.9302 -4.5,-0.9375 -1.602434,-0.01 -5.296621,0.2759 -6.416109,1.4225 -0.771714,0.7904 -1.131266,2.303 -0.5625,3.25 0.740973,1.2337 2.932199,0.4942 4.09375,1.3438 0.891831,0.6523 1.696277,1.6092 1.9375,2.6875 0.381457,1.7051 -2.212685,3.9292 -0.96875,5.1562 0.851293,0.8397 4.103451,-0.7677 5.228609,-1.1725 1.962906,-0.7062 2.632611,-1.7973 4.045121,-3.3324 1.511716,-1.6429 2.171575,-4.7436 4.142379,-5.7926 1.690975,-0.9 4.060119,2.0544 5.65625,1.0625 z"
         id="path3791"
         inkscape:connector-curvature="0"
         sodipodi:nodetypes="cccsssssssscssssssssccsscsssssscsssscccccsssssscccsscssssccc" />
    </g>
    <text
       xml:space="preserve"
       style="font-size:24px;font-style:normal;font-weight:normal;text-align:end;line-height:125%;letter-spacing:0px;word-spacing:0px;text-anchor:end;fill:#000000;fill-opacity:1;stroke:none;font-family:Sans"
       x="160.61426"
       y="1014.5334"
       id="text3759"
       sodipodi:linespacing="125%"><tspan
         sodipodi:role="line"
         id="tspan3761"
         x="160.61426"
         y="1014.5334">Worldstate</tspan><tspan
         sodipodi:role="line"
         x="160.61426"
         y="1044.5334"
         id="tspan3017">Loader</tspan></text>
  </g>
</svg>
