<?xml version="1.0" encoding="UTF-8" standalone="no"?>
<!-- Created with Inkscape (http://www.inkscape.org/) -->

<svg
   xmlns:dc="http://purl.org/dc/elements/1.1/"
   xmlns:cc="http://creativecommons.org/ns#"
   xmlns:rdf="http://www.w3.org/1999/02/22-rdf-syntax-ns#"
   xmlns:svg="http://www.w3.org/2000/svg"
   xmlns="http://www.w3.org/2000/svg"
   xmlns:sodipodi="http://sodipodi.sourceforge.net/DTD/sodipodi-0.dtd"
   xmlns:inkscape="http://www.inkscape.org/namespaces/inkscape"
   width="170"
   height="80"
   id="svg2"
   version="1.1"
   inkscape:version="0.48.4 r9939"
   sodipodi:docname="catalogue.svg">
  <defs
     id="defs4">
    <clipPath
       clipPathUnits="userSpaceOnUse"
       id="clipPath3821">
      <path
         style="color:#000000;fill:#be2049;fill-opacity:1;fill-rule:nonzero;stroke:none;stroke-width:2;marker:none;visibility:visible;display:inline;overflow:visible;enable-background:accumulate"
         d="m 1630.4804,1906.465 143.2505,0 0.4856,13.2062 -143.8205,0 z"
         id="path3823"
         inkscape:connector-curvature="0"
         sodipodi:nodetypes="ccccc" />
    </clipPath>
    <clipPath
       clipPathUnits="userSpaceOnUse"
       id="clipPath3825">
      <path
         style="color:#000000;fill:#be2049;fill-opacity:1;fill-rule:nonzero;stroke:none;stroke-width:2;marker:none;visibility:visible;display:inline;overflow:visible;enable-background:accumulate"
         d="m 1630.4804,1906.465 143.2505,0 0.4856,13.2062 -143.8205,0 z"
         id="path3827"
         inkscape:connector-curvature="0"
         sodipodi:nodetypes="ccccc" />
    </clipPath>
    <clipPath
       clipPathUnits="userSpaceOnUse"
       id="clipPath3829">
      <path
         style="color:#000000;fill:#be2049;fill-opacity:1;fill-rule:nonzero;stroke:none;stroke-width:2;marker:none;visibility:visible;display:inline;overflow:visible;enable-background:accumulate"
         d="m 1630.4804,1906.465 143.2505,0 0.4856,13.2062 -143.8205,0 z"
         id="path3831"
         inkscape:connector-curvature="0"
         sodipodi:nodetypes="ccccc" />
    </clipPath>
    <clipPath
       clipPathUnits="userSpaceOnUse"
       id="clipPath3833">
      <path
         style="color:#000000;fill:#be2049;fill-opacity:1;fill-rule:nonzero;stroke:none;stroke-width:2;marker:none;visibility:visible;display:inline;overflow:visible;enable-background:accumulate"
         d="m 1630.4804,1906.465 143.2505,0 0.4856,13.2062 -143.8205,0 z"
         id="path3835"
         inkscape:connector-curvature="0"
         sodipodi:nodetypes="ccccc" />
    </clipPath>
    <clipPath
       clipPathUnits="userSpaceOnUse"
       id="clipPath3837">
      <path
         style="color:#000000;fill:#be2049;fill-opacity:1;fill-rule:nonzero;stroke:none;stroke-width:2;marker:none;visibility:visible;display:inline;overflow:visible;enable-background:accumulate"
         d="m 1630.4804,1906.465 143.2505,0 0.4856,13.2062 -143.8205,0 z"
         id="path3839"
         inkscape:connector-curvature="0"
         sodipodi:nodetypes="ccccc" />
    </clipPath>
    <clipPath
       clipPathUnits="userSpaceOnUse"
       id="clipPath3841">
      <path
         style="color:#000000;fill:#be2049;fill-opacity:1;fill-rule:nonzero;stroke:none;stroke-width:2;marker:none;visibility:visible;display:inline;overflow:visible;enable-background:accumulate"
         d="m 1630.4804,1906.465 143.2505,0 0.4856,13.2062 -143.8205,0 z"
         id="path3843"
         inkscape:connector-curvature="0"
         sodipodi:nodetypes="ccccc" />
    </clipPath>
    <clipPath
       clipPathUnits="userSpaceOnUse"
       id="clipPath3845">
      <path
         style="color:#000000;fill:#be2049;fill-opacity:1;fill-rule:nonzero;stroke:none;stroke-width:2;marker:none;visibility:visible;display:inline;overflow:visible;enable-background:accumulate"
         d="m 1630.4804,1906.465 143.2505,0 0.4856,13.2062 -143.8205,0 z"
         id="path3847"
         inkscape:connector-curvature="0"
         sodipodi:nodetypes="ccccc" />
    </clipPath>
    <clipPath
       clipPathUnits="userSpaceOnUse"
       id="clipPath3849">
      <path
         style="color:#000000;fill:#be2049;fill-opacity:1;fill-rule:nonzero;stroke:none;stroke-width:2;marker:none;visibility:visible;display:inline;overflow:visible;enable-background:accumulate"
         d="m 1630.4804,1906.465 143.2505,0 0.4856,13.2062 -143.8205,0 z"
         id="path3851"
         inkscape:connector-curvature="0"
         sodipodi:nodetypes="ccccc" />
    </clipPath>
    <clipPath
       clipPathUnits="userSpaceOnUse"
       id="clipPath3853">
      <path
         style="color:#000000;fill:#be2049;fill-opacity:1;fill-rule:nonzero;stroke:none;stroke-width:2;marker:none;visibility:visible;display:inline;overflow:visible;enable-background:accumulate"
         d="m 1630.4804,1906.465 143.2505,0 0.4856,13.2062 -143.8205,0 z"
         id="path3855"
         inkscape:connector-curvature="0"
         sodipodi:nodetypes="ccccc" />
    </clipPath>
    <clipPath
       clipPathUnits="userSpaceOnUse"
       id="clipPath3857">
      <path
         style="color:#000000;fill:#be2049;fill-opacity:1;fill-rule:nonzero;stroke:none;stroke-width:2;marker:none;visibility:visible;display:inline;overflow:visible;enable-background:accumulate"
         d="m 1630.4804,1906.465 143.2505,0 0.4856,13.2062 -143.8205,0 z"
         id="path3859"
         inkscape:connector-curvature="0"
         sodipodi:nodetypes="ccccc" />
    </clipPath>
    <clipPath
       clipPathUnits="userSpaceOnUse"
       id="clipPath3861">
      <path
         style="color:#000000;fill:#be2049;fill-opacity:1;fill-rule:nonzero;stroke:none;stroke-width:2;marker:none;visibility:visible;display:inline;overflow:visible;enable-background:accumulate"
         d="m 1630.4804,1906.465 143.2505,0 0.4856,13.2062 -143.8205,0 z"
         id="path3863"
         inkscape:connector-curvature="0"
         sodipodi:nodetypes="ccccc" />
    </clipPath>
    <clipPath
       clipPathUnits="userSpaceOnUse"
       id="clipPath3865">
      <path
         style="color:#000000;fill:#be2049;fill-opacity:1;fill-rule:nonzero;stroke:none;stroke-width:2;marker:none;visibility:visible;display:inline;overflow:visible;enable-background:accumulate"
         d="m 1630.4804,1906.465 143.2505,0 0.4856,13.2062 -143.8205,0 z"
         id="path3867"
         inkscape:connector-curvature="0"
         sodipodi:nodetypes="ccccc" />
    </clipPath>
    <clipPath
       clipPathUnits="userSpaceOnUse"
       id="clipPath3869">
      <path
         style="color:#000000;fill:#be2049;fill-opacity:1;fill-rule:nonzero;stroke:none;stroke-width:2;marker:none;visibility:visible;display:inline;overflow:visible;enable-background:accumulate"
         d="m 1630.4804,1906.465 143.2505,0 0.4856,13.2062 -143.8205,0 z"
         id="path3871"
         inkscape:connector-curvature="0"
         sodipodi:nodetypes="ccccc" />
    </clipPath>
    <clipPath
       clipPathUnits="userSpaceOnUse"
       id="clipPath3873">
      <path
         style="color:#000000;fill:#be2049;fill-opacity:1;fill-rule:nonzero;stroke:none;stroke-width:2;marker:none;visibility:visible;display:inline;overflow:visible;enable-background:accumulate"
         d="m 1630.4804,1906.465 143.2505,0 0.4856,13.2062 -143.8205,0 z"
         id="path3875"
         inkscape:connector-curvature="0"
         sodipodi:nodetypes="ccccc" />
    </clipPath>
  </defs>
  <sodipodi:namedview
     id="base"
     pagecolor="#ffffff"
     bordercolor="#666666"
     borderopacity="1.0"
     inkscape:pageopacity="0.0"
     inkscape:pageshadow="2"
     inkscape:zoom="0.7"
     inkscape:cx="113.82219"
     inkscape:cy="238.16254"
     inkscape:document-units="px"
     inkscape:current-layer="layer1"
     showgrid="false"
     inkscape:showpageshadow="false"
     borderlayer="true"
     inkscape:window-width="2560"
     inkscape:window-height="1378"
     inkscape:window-x="-8"
     inkscape:window-y="-8"
     inkscape:window-maximized="1" />
  <metadata
     id="metadata7">
    <rdf:RDF>
      <cc:Work
         rdf:about="">
        <dc:format>image/svg+xml</dc:format>
        <dc:type
           rdf:resource="http://purl.org/dc/dcmitype/StillImage" />
      </cc:Work>
    </rdf:RDF>
  </metadata>
  <g
     inkscape:label="Ebene 1"
     inkscape:groupmode="layer"
     id="layer1"
     transform="translate(0,-972.36218)">
    <g
       style="font-size:22px;font-style:normal;font-variant:normal;font-weight:normal;font-stretch:normal;text-align:center;line-height:125%;letter-spacing:0px;word-spacing:0px;text-anchor:middle;fill:#000000;fill-opacity:1;stroke:none;font-family:Calibri;-inkscape-font-specification:Calibri"
       id="text3954"
       transform="translate(1.09845,-13.928571)">
      <path
         d="m 31.270203,1023.7986 c -1.7e-5,0.057 -0.01434,0.1074 -0.04297,0.1504 -0.02866,0.043 -0.07879,0.077 -0.150391,0.102 -0.07163,0.025 -0.16294,0.047 -0.273926,0.065 -0.111019,0.018 -0.256038,0.027 -0.435058,0.027 -0.16473,0 -0.306168,-0.01 -0.424317,-0.027 -0.118179,-0.018 -0.211278,-0.039 -0.279296,-0.065 -0.06805,-0.025 -0.116389,-0.059 -0.14502,-0.102 -0.02866,-0.043 -0.04298,-0.093 -0.04297,-0.1504 l 0,-12.1065 -0.02148,0 -4.952148,12.1602 c -0.02149,0.05 -0.05193,0.093 -0.09131,0.1289 -0.0394,0.036 -0.09669,0.066 -0.171875,0.091 -0.07521,0.025 -0.164723,0.043 -0.268555,0.054 -0.10385,0.011 -0.227386,0.016 -0.370605,0.016 -0.1504,0 -0.279306,-0.01 -0.386719,-0.022 -0.107431,-0.014 -0.196949,-0.034 -0.268555,-0.059 -0.07162,-0.025 -0.127124,-0.055 -0.166504,-0.091 -0.0394,-0.036 -0.06625,-0.075 -0.08057,-0.1182 l -4.737305,-12.1602 -0.01074,0 0,12.1065 c -4e-6,0.057 -0.01433,0.1074 -0.04297,0.1504 -0.02865,0.043 -0.07878,0.077 -0.15039,0.102 -0.07162,0.025 -0.164717,0.047 -0.279297,0.065 -0.114587,0.018 -0.261396,0.027 -0.44043,0.027 -0.171877,0 -0.315106,-0.01 -0.429687,-0.027 -0.114586,-0.018 -0.205894,-0.039 -0.273926,-0.065 -0.06804,-0.025 -0.114585,-0.059 -0.139649,-0.102 -0.02507,-0.043 -0.0376,-0.093 -0.0376,-0.1504 l 0,-12.7832 c -2e-6,-0.3008 0.07877,-0.5156 0.236328,-0.6446 0.15755,-0.1288 0.333005,-0.1933 0.526367,-0.1933 l 1.117188,0 c 0.229162,0 0.429683,0.021 0.601562,0.064 0.171871,0.043 0.322261,0.1111 0.451172,0.2041 0.128901,0.093 0.236323,0.2113 0.322266,0.3545 0.08593,0.1433 0.161127,0.3116 0.225586,0.5049 l 4.02832,10.0654 0.05371,0 4.189453,-10.0332 c 0.07876,-0.2148 0.1647,-0.3974 0.257812,-0.5478 0.09308,-0.1504 0.195136,-0.2703 0.306153,-0.3599 0.110988,-0.089 0.234523,-0.1539 0.370605,-0.1933 0.136053,-0.039 0.293605,-0.059 0.472657,-0.059 l 1.170898,0 c 0.107406,0 0.209456,0.016 0.306152,0.048 0.09666,0.032 0.17902,0.082 0.247071,0.1504 0.06802,0.068 0.123518,0.154 0.166504,0.2578 0.04295,0.1039 0.06444,0.231 0.06445,0.3814 z"
         id="path3959"
         inkscape:connector-curvature="0" />
      <path
         d="m 39.176453,1024.0779 -1.289063,3.5556 c -0.04297,0.1146 -0.152185,0.2024 -0.327637,0.2632 -0.17546,0.061 -0.442224,0.091 -0.800293,0.091 -0.186201,0 -0.336591,-0.01 -0.451171,-0.027 -0.114587,-0.018 -0.202315,-0.048 -0.263184,-0.091 -0.06088,-0.043 -0.09489,-0.1003 -0.102051,-0.1719 -0.0072,-0.072 0.01074,-0.1576 0.05371,-0.2578 l 1.332031,-3.3623 c -0.06446,-0.029 -0.125329,-0.075 -0.182617,-0.1397 -0.05729,-0.064 -0.09668,-0.1325 -0.118164,-0.2041 l -3.448242,-9.2383 c -0.05729,-0.1503 -0.08594,-0.2685 -0.08594,-0.3544 0,-0.086 0.02865,-0.154 0.08594,-0.2041 0.05729,-0.05 0.15039,-0.084 0.279297,-0.1021 0.128905,-0.018 0.30078,-0.027 0.515625,-0.027 0.214842,10e-5 0.383136,0.01 0.504883,0.016 0.121743,0.011 0.218422,0.03 0.290039,0.059 0.07161,0.029 0.123533,0.07 0.155761,0.1236 0.03222,0.054 0.06624,0.1271 0.102051,0.2202 l 2.760742,7.7559 0.03223,0 2.664062,-7.7989 c 0.04296,-0.136 0.09488,-0.2238 0.155762,-0.2632 0.06086,-0.039 0.152173,-0.068 0.273926,-0.086 0.121736,-0.018 0.297192,-0.027 0.526367,-0.027 0.200512,10e-5 0.365225,0.01 0.494141,0.027 0.128897,0.018 0.223786,0.052 0.284668,0.1021 0.06086,0.05 0.0913,0.1181 0.09131,0.2041 -9e-6,0.086 -0.02149,0.1933 -0.06445,0.3222 z"
         id="path3961"
         inkscape:connector-curvature="0" />
      <path
         d="m 58.050476,1023.8093 c -1e-5,0.057 -0.01433,0.1057 -0.04297,0.145 -0.02865,0.039 -0.0752,0.074 -0.139648,0.1021 -0.06446,0.029 -0.153981,0.05 -0.268555,0.064 -0.114593,0.014 -0.257822,0.022 -0.429687,0.022 -0.179046,0 -0.325855,-0.01 -0.44043,-0.022 -0.114592,-0.014 -0.20411,-0.036 -0.268555,-0.064 -0.06446,-0.029 -0.111011,-0.063 -0.139648,-0.1021 -0.02865,-0.039 -0.04298,-0.088 -0.04297,-0.145 l 0,-5.6611 c -8e-6,-0.5514 -0.04298,-0.9954 -0.128906,-1.332 -0.08595,-0.3366 -0.211271,-0.6267 -0.375977,-0.8702 -0.164721,-0.2434 -0.377774,-0.4296 -0.63916,-0.5585 -0.2614,-0.1289 -0.563971,-0.1934 -0.907715,-0.1934 -0.444016,0 -0.888026,0.1576 -1.332031,0.4726 -0.444015,0.3152 -0.909509,0.7771 -1.396484,1.3858 l 0,6.7568 c -4e-6,0.057 -0.01433,0.1057 -0.04297,0.145 -0.02865,0.039 -0.0752,0.074 -0.139648,0.1021 -0.06446,0.029 -0.153975,0.05 -0.268555,0.064 -0.114586,0.014 -0.261396,0.022 -0.44043,0.022 -0.171877,0 -0.315106,-0.01 -0.429687,-0.022 -0.114586,-0.014 -0.205894,-0.036 -0.273926,-0.064 -0.06804,-0.029 -0.114585,-0.063 -0.139649,-0.1021 -0.02507,-0.039 -0.0376,-0.088 -0.0376,-0.145 l 0,-9.6679 c -2e-6,-0.057 0.01074,-0.1057 0.03223,-0.1451 0.02148,-0.039 0.06445,-0.075 0.128907,-0.1074 0.06445,-0.032 0.146808,-0.054 0.24707,-0.064 0.100258,-0.011 0.232745,-0.016 0.397461,-0.016 0.157549,10e-5 0.288246,0.01 0.39209,0.016 0.103838,0.011 0.184404,0.032 0.241699,0.064 0.05729,0.032 0.09847,0.068 0.123535,0.1074 0.02506,0.039 0.03759,0.088 0.0376,0.1451 l 0,1.2783 c 0.544267,-0.6087 1.086747,-1.0545 1.627441,-1.3374 0.540685,-0.2829 1.086745,-0.4243 1.638184,-0.4243 0.644524,0 1.187004,0.1092 1.627441,0.3276 0.440421,0.2184 0.796703,0.5103 1.068848,0.8755 0.272126,0.3652 0.467275,0.7931 0.585449,1.2837 0.118154,0.4905 0.177236,1.0796 0.177246,1.7671 z"
         id="path3963"
         inkscape:connector-curvature="0" />
      <path
         d="m 69.533875,1018.5564 c -10e-6,0.2793 -0.06983,0.478 -0.209473,0.5962 -0.139658,0.1182 -0.299,0.1772 -0.478027,0.1772 l -6.337891,0 c -3e-6,0.5371 0.05371,1.0205 0.161133,1.4502 0.107418,0.4297 0.286455,0.7985 0.537109,1.1065 0.250647,0.3079 0.576493,0.5442 0.977539,0.709 0.401037,0.1647 0.891596,0.247 1.47168,0.247 0.458327,0 0.866529,-0.038 1.224609,-0.1128 0.358066,-0.075 0.667798,-0.1593 0.929199,-0.2524 0.261385,-0.093 0.476229,-0.1772 0.644532,-0.2524 0.168285,-0.075 0.295401,-0.1128 0.381347,-0.1128 0.05012,0 0.09488,0.012 0.134278,0.038 0.03938,0.025 0.06981,0.063 0.09131,0.1128 0.02148,0.05 0.03759,0.1199 0.04834,0.2094 0.01073,0.09 0.0161,0.1988 0.01611,0.3277 -9e-6,0.093 -0.0036,0.1736 -0.01074,0.2417 -0.0072,0.068 -0.01612,0.1289 -0.02685,0.1826 -0.01075,0.054 -0.02866,0.102 -0.05371,0.145 -0.02508,0.043 -0.0573,0.084 -0.09668,0.1235 -0.0394,0.039 -0.155771,0.1039 -0.349121,0.1934 -0.193368,0.09 -0.444019,0.1772 -0.751953,0.2632 -0.307951,0.086 -0.664233,0.1629 -1.068848,0.2309 -0.404629,0.068 -0.836106,0.1021 -1.294433,0.1021 -0.794927,0 -1.491378,-0.111 -2.089356,-0.333 -0.597985,-0.222 -1.101077,-0.5515 -1.509277,-0.9883 -0.408205,-0.4369 -0.716148,-0.9847 -0.923828,-1.6436 -0.207684,-0.6588 -0.311525,-1.4251 -0.311524,-2.2988 -10e-7,-0.8307 0.107421,-1.5773 0.322266,-2.2397 0.214842,-0.6625 0.524575,-1.2246 0.929199,-1.6866 0.40462,-0.4619 0.893389,-0.8164 1.466309,-1.0634 0.572912,-0.2471 1.213862,-0.3706 1.922851,-0.3706 0.759108,0 1.405429,0.1217 1.938965,0.3652 0.533521,0.2435 0.97216,0.5711 1.315918,0.9829 0.343741,0.4118 0.596182,0.8952 0.757324,1.4502 0.161123,0.555 0.24169,1.1476 0.2417,1.7778 z m -1.783204,-0.5264 c 0.02148,-0.931 -0.184415,-1.6614 -0.617675,-2.1914 -0.433276,-0.5299 -1.076016,-0.7949 -1.928223,-0.7949 -0.436854,0 -0.819992,0.082 -1.149414,0.2471 -0.329431,0.1647 -0.605147,0.3831 -0.827149,0.6552 -0.222008,0.2722 -0.393883,0.5891 -0.515625,0.9507 -0.121747,0.3617 -0.189781,0.7395 -0.204101,1.1333 z"
         id="path3965"
         inkscape:connector-curvature="0" />
      <path
         d="m 85.76532,1014.1199 c -1.5e-5,0.05 -0.0072,0.111 -0.02148,0.1826 -0.01434,0.072 -0.0394,0.1611 -0.0752,0.2685 l -2.84668,9.1846 c -0.0215,0.079 -0.05551,0.1432 -0.10205,0.1934 -0.04656,0.05 -0.111015,0.09 -0.19336,0.1181 -0.08237,0.029 -0.195161,0.048 -0.338379,0.059 -0.14324,0.011 -0.322277,0.016 -0.537109,0.016 -0.222016,0 -0.408214,-0.01 -0.558594,-0.022 -0.150401,-0.014 -0.270355,-0.036 -0.359863,-0.064 -0.08953,-0.029 -0.155772,-0.068 -0.19873,-0.1182 -0.04298,-0.05 -0.07521,-0.111 -0.09668,-0.1826 l -2.030274,-7.0146 -0.02148,-0.097 -0.02148,0.097 -1.879883,7.0146 c -0.02149,0.079 -0.05551,0.1432 -0.102051,0.1934 -0.04655,0.05 -0.116379,0.09 -0.209473,0.1181 -0.0931,0.029 -0.213058,0.048 -0.359863,0.059 -0.146815,0.011 -0.327642,0.016 -0.54248,0.016 -0.22201,0 -0.402837,-0.01 -0.542481,-0.022 -0.139652,-0.014 -0.254235,-0.036 -0.34375,-0.064 -0.08952,-0.029 -0.155765,-0.068 -0.19873,-0.1182 -0.04297,-0.05 -0.0752,-0.111 -0.09668,-0.1826 l -2.825195,-9.1846 c -0.03581,-0.1074 -0.06087,-0.1969 -0.0752,-0.2685 -0.01432,-0.072 -0.02148,-0.1325 -0.02148,-0.1826 -10e-7,-0.065 0.01432,-0.1164 0.04297,-0.1558 0.02865,-0.039 0.07699,-0.072 0.145019,-0.097 0.06803,-0.025 0.159342,-0.041 0.273926,-0.048 0.114582,-0.01 0.254231,-0.011 0.418945,-0.011 0.20052,10e-5 0.361652,0.01 0.483399,0.016 0.121743,0.011 0.214841,0.029 0.279297,0.054 0.06445,0.025 0.111,0.061 0.139648,0.1074 0.02864,0.047 0.05371,0.1021 0.0752,0.1665 l 2.331055,7.9707 0.02148,0.097 0.02148,-0.097 2.137695,-7.9707 c 0.01432,-0.064 0.03759,-0.1199 0.06982,-0.1665 0.03222,-0.046 0.08056,-0.082 0.14502,-0.1074 0.06445,-0.025 0.152174,-0.043 0.263184,-0.054 0.110995,-0.011 0.256014,-0.016 0.435058,-0.016 0.171867,10e-5 0.313306,0.01 0.424317,0.016 0.110994,0.011 0.198722,0.029 0.263183,0.054 0.06445,0.025 0.110994,0.059 0.139649,0.102 0.02864,0.043 0.05012,0.093 0.06445,0.1504 l 2.30957,7.9922 0.02148,0.097 0.01074,-0.097 2.298828,-7.9707 c 0.01431,-0.064 0.03758,-0.1199 0.06982,-0.1665 0.03221,-0.046 0.08234,-0.082 0.150391,-0.1074 0.06802,-0.025 0.161119,-0.043 0.279296,-0.054 0.11815,-0.011 0.270331,-0.016 0.456543,-0.016 0.171861,10e-5 0.309719,0 0.413575,0.011 0.103826,0.01 0.186183,0.025 0.24707,0.054 0.06086,0.029 0.103826,0.061 0.128906,0.097 0.02505,0.036 0.03758,0.086 0.0376,0.1504 z"
         id="path3967"
         inkscape:connector-curvature="0" />
      <path
         d="m 106.47626,1014.1199 c -2e-5,0.05 -0.007,0.111 -0.0215,0.1826 -0.0143,0.072 -0.0394,0.1611 -0.0752,0.2685 l -2.84668,9.1846 c -0.0215,0.079 -0.0555,0.1432 -0.10205,0.1934 -0.0466,0.05 -0.11102,0.09 -0.19336,0.1181 -0.0824,0.029 -0.19516,0.048 -0.33838,0.059 -0.14324,0.011 -0.32228,0.016 -0.53711,0.016 -0.22202,0 -0.40821,-0.01 -0.55859,-0.022 -0.15041,-0.014 -0.27036,-0.036 -0.35987,-0.064 -0.0895,-0.029 -0.15577,-0.068 -0.19873,-0.1182 -0.043,-0.05 -0.0752,-0.111 -0.0967,-0.1826 l -2.030271,-7.0146 -0.02148,-0.097 -0.02148,0.097 -1.879883,7.0146 c -0.02149,0.079 -0.05551,0.1432 -0.10205,0.1934 -0.04656,0.05 -0.11638,0.09 -0.209473,0.1181 -0.0931,0.029 -0.213059,0.048 -0.359863,0.059 -0.146815,0.011 -0.327642,0.016 -0.542481,0.016 -0.22201,0 -0.402836,-0.01 -0.54248,-0.022 -0.139653,-0.014 -0.254236,-0.036 -0.34375,-0.064 -0.08952,-0.029 -0.155766,-0.068 -0.198731,-0.1182 -0.04297,-0.05 -0.0752,-0.111 -0.09668,-0.1826 l -2.825196,-9.1846 c -0.03581,-0.1074 -0.06087,-0.1969 -0.0752,-0.2685 -0.01432,-0.072 -0.02148,-0.1325 -0.02148,-0.1826 -1e-6,-0.065 0.01432,-0.1164 0.04297,-0.1558 0.02864,-0.039 0.07699,-0.072 0.14502,-0.097 0.06803,-0.025 0.159341,-0.041 0.273926,-0.048 0.114582,-0.01 0.25423,-0.011 0.418945,-0.011 0.200519,10e-5 0.361652,0.01 0.483398,0.016 0.121743,0.011 0.214842,0.029 0.279297,0.054 0.06445,0.025 0.111,0.061 0.139649,0.1074 0.02864,0.047 0.05371,0.1021 0.0752,0.1665 l 2.331055,7.9707 0.02148,0.097 0.02148,-0.097 2.137696,-7.9707 c 0.01432,-0.064 0.03759,-0.1199 0.06982,-0.1665 0.03222,-0.046 0.08056,-0.082 0.145019,-0.1074 0.06445,-0.025 0.152174,-0.043 0.263184,-0.054 0.110995,-0.011 0.256015,-0.016 0.435059,-0.016 0.171867,10e-5 0.313305,0.01 0.424316,0.016 0.110994,0.011 0.198722,0.029 0.263184,0.054 0.06444,0.025 0.110994,0.059 0.139648,0.102 0.02863,0.043 0.05012,0.093 0.06445,0.1504 l 2.30957,7.9922 0.0215,0.097 0.0107,-0.097 2.29882,-7.9707 c 0.0143,-0.064 0.0376,-0.1199 0.0698,-0.1665 0.0322,-0.046 0.0823,-0.082 0.15039,-0.1074 0.068,-0.025 0.16112,-0.043 0.2793,-0.054 0.11815,-0.011 0.27033,-0.016 0.45654,-0.016 0.17186,10e-5 0.30972,0 0.41357,0.011 0.10383,0.01 0.18619,0.025 0.24707,0.054 0.0609,0.029 0.10383,0.061 0.12891,0.097 0.0251,0.036 0.0376,0.086 0.0376,0.1504 z"
         id="path3969"
         inkscape:connector-curvature="0" />
      <path
         d="m 110.45087,1023.8093 c -10e-6,0.057 -0.0143,0.1057 -0.043,0.145 -0.0286,0.039 -0.0752,0.074 -0.13965,0.1021 -0.0645,0.029 -0.15397,0.05 -0.26856,0.064 -0.11458,0.014 -0.26139,0.022 -0.44042,0.022 -0.17188,0 -0.31511,-0.01 -0.42969,-0.022 -0.11459,-0.014 -0.2059,-0.036 -0.27393,-0.064 -0.068,-0.029 -0.11458,-0.063 -0.13965,-0.1021 -0.0251,-0.039 -0.0376,-0.088 -0.0376,-0.145 l 0,-9.6679 c -1e-5,-0.05 0.0125,-0.097 0.0376,-0.1397 0.0251,-0.043 0.0716,-0.079 0.13965,-0.1074 0.068,-0.029 0.15934,-0.05 0.27393,-0.065 0.11458,-0.014 0.25781,-0.021 0.42969,-0.021 0.17903,10e-5 0.32584,0.01 0.44042,0.021 0.11459,0.014 0.2041,0.036 0.26856,0.065 0.0645,0.029 0.111,0.064 0.13965,0.1074 0.0286,0.043 0.043,0.089 0.043,0.1397 z"
         id="path3994"
         inkscape:connector-curvature="0" />
      <path
         style="fill:#be2049;fill-opacity:1"
         d="m 110.65497,1010.8757 c -1e-5,0.4154 -0.0788,0.6983 -0.23633,0.8487 -0.15756,0.1504 -0.44759,0.2256 -0.87012,0.2256 -0.41536,0 -0.70003,-0.073 -0.854,-0.2203 -0.15397,-0.1468 -0.23096,-0.4243 -0.23096,-0.8325 0,-0.4153 0.0788,-0.6982 0.23633,-0.8486 0.15755,-0.1504 0.44759,-0.2256 0.87012,-0.2256 0.41536,0 0.70003,0.073 0.854,0.2202 0.15397,0.1468 0.23095,0.4243 0.23096,0.8325 z"
         id="path3971"
         inkscape:connector-curvature="0" />
      <path
         d="m 122.03094,1023.8093 c -1e-5,0.057 -0.0125,0.1074 -0.0376,0.1504 -0.0251,0.043 -0.0681,0.077 -0.12891,0.1021 -0.0609,0.025 -0.14145,0.045 -0.2417,0.059 -0.10027,0.014 -0.22201,0.022 -0.36523,0.022 -0.1504,0 -0.27573,-0.01 -0.37598,-0.022 -0.10027,-0.014 -0.18263,-0.034 -0.24707,-0.059 -0.0645,-0.025 -0.11101,-0.059 -0.13965,-0.1021 -0.0286,-0.043 -0.043,-0.093 -0.043,-0.1504 l 0,-1.2783 c -0.50847,0.5514 -1.03663,0.9811 -1.58447,1.2891 -0.54786,0.3079 -1.14763,0.4619 -1.79932,0.4619 -0.70898,0 -1.31413,-0.1379 -1.81543,-0.4136 -0.5013,-0.2757 -0.90771,-0.6481 -1.21923,-1.1172 -0.31153,-0.4691 -0.5389,-1.0205 -0.68213,-1.6543 -0.14323,-0.6338 -0.21485,-1.3016 -0.21485,-2.0034 0,-0.8307 0.0895,-1.5809 0.26856,-2.2505 0.17903,-0.6696 0.44401,-1.2407 0.79492,-1.7134 0.35091,-0.4726 0.78597,-0.8361 1.30518,-1.0903 0.5192,-0.2542 1.11897,-0.3813 1.79931,-0.3813 0.56575,0 1.08317,0.1235 1.55225,0.3706 0.46907,0.247 0.93277,0.6105 1.39111,1.0903 l 0,-5.6182 c -10e-6,-0.05 0.0125,-0.098 0.0376,-0.145 0.0251,-0.046 0.0734,-0.082 0.14502,-0.1074 0.0716,-0.025 0.16291,-0.046 0.27392,-0.064 0.111,-0.018 0.25244,-0.027 0.42432,-0.027 0.17903,0 0.32584,0.01 0.44043,0.027 0.11457,0.018 0.20409,0.039 0.26856,0.064 0.0644,0.025 0.11278,0.061 0.14501,0.1074 0.0322,0.047 0.0483,0.095 0.0483,0.145 z m -1.7832,-6.7998 c -0.47982,-0.5944 -0.94353,-1.0473 -1.39111,-1.3589 -0.4476,-0.3115 -0.91488,-0.4672 -1.40186,-0.4673 -0.45117,10e-5 -0.83431,0.1075 -1.14941,0.3223 -0.31511,0.2149 -0.57113,0.4977 -0.76807,0.8486 -0.19694,0.351 -0.34017,0.7484 -0.42969,1.1924 -0.0895,0.444 -0.13428,0.8952 -0.13427,1.3535 -1e-5,0.487 0.0376,0.9633 0.11279,1.4288 0.0752,0.4655 0.20589,0.879 0.39209,1.2407 0.18619,0.3616 0.43326,0.6517 0.74121,0.8701 0.30794,0.2184 0.69466,0.3276 1.16016,0.3276 0.23632,0 0.4637,-0.032 0.68213,-0.097 0.21841,-0.065 0.44221,-0.1719 0.67138,-0.3223 0.22916,-0.1504 0.46907,-0.3455 0.71973,-0.5855 0.25064,-0.2399 0.51562,-0.5353 0.79492,-0.8862 z"
         id="path3973"
         inkscape:connector-curvature="0" />
      <path
         d="m 133.38544,1014.5818 c -10e-6,0.2506 -0.034,0.4315 -0.10205,0.5425 -0.068,0.111 -0.15577,0.1665 -0.26319,0.1665 l -1.38574,0 c 0.25064,0.2578 0.4261,0.5425 0.52637,0.854 0.10025,0.3115 0.15038,0.6356 0.15039,0.9721 -1e-5,0.5586 -0.0895,1.0528 -0.26856,1.4825 -0.17904,0.4297 -0.43506,0.7931 -0.76806,1.0903 -0.33302,0.2972 -0.72869,0.5246 -1.18701,0.6821 -0.45834,0.1576 -0.96681,0.2364 -1.5254,0.2364 -0.39388,0 -0.76807,-0.052 -1.12255,-0.1558 -0.3545,-0.1038 -0.62842,-0.2345 -0.82178,-0.3921 -0.12891,0.1289 -0.23454,0.2757 -0.3169,0.4404 -0.0824,0.1647 -0.12353,0.3545 -0.12353,0.5694 0,0.2506 0.11637,0.4583 0.34912,0.623 0.23274,0.1647 0.54248,0.2542 0.9292,0.2686 l 2.52441,0.1074 c 0.47981,0.014 0.92024,0.081 1.32129,0.1987 0.40104,0.1182 0.74837,0.2865 1.04199,0.5049 0.29362,0.2184 0.52278,0.487 0.6875,0.8057 0.16471,0.3187 0.24707,0.6893 0.24708,1.1118 -1e-5,0.444 -0.0931,0.8665 -0.2793,1.2676 -0.18621,0.401 -0.47088,0.7537 -0.85401,1.0581 -0.38314,0.3043 -0.87191,0.5442 -1.4663,0.7197 -0.59441,0.1754 -1.29623,0.2632 -2.10547,0.2632 -0.78061,0 -1.44483,-0.066 -1.99268,-0.1988 -0.54785,-0.1324 -0.99723,-0.3133 -1.34814,-0.5424 -0.35092,-0.2292 -0.60515,-0.5031 -0.7627,-0.8218 -0.15755,-0.3187 -0.23633,-0.6642 -0.23633,-1.0366 0,-0.2364 0.0286,-0.4655 0.0859,-0.6875 0.0573,-0.222 0.14502,-0.4333 0.26318,-0.6338 0.11817,-0.2005 0.26498,-0.3921 0.44043,-0.5747 0.17546,-0.1826 0.37777,-0.3635 0.60694,-0.5425 -0.35092,-0.179 -0.61052,-0.4046 -0.77881,-0.6768 -0.1683,-0.2721 -0.25244,-0.5657 -0.25244,-0.8808 0,-0.4369 0.0895,-0.8272 0.26855,-1.1709 0.17904,-0.3438 0.40104,-0.6517 0.66602,-0.9239 -0.22201,-0.2649 -0.39746,-0.5639 -0.52637,-0.8969 -0.12891,-0.333 -0.19336,-0.7359 -0.19336,-1.2085 0,-0.5514 0.0931,-1.0456 0.2793,-1.4824 0.18619,-0.4369 0.44401,-0.8057 0.77344,-1.1065 0.32942,-0.3008 0.72509,-0.5317 1.18701,-0.6929 0.46191,-0.1611 0.965,-0.2416 1.50927,-0.2417 0.29362,10e-5 0.56754,0.016 0.82178,0.048 0.25423,0.032 0.49235,0.077 0.71436,0.1343 l 2.92187,0 c 0.12174,0 0.21305,0.059 0.27393,0.1772 0.0609,0.1182 0.0913,0.299 0.0913,0.5425 z m -2.77149,2.5459 c 0,-0.6589 -0.18083,-1.1727 -0.54248,-1.5415 -0.36166,-0.3688 -0.87549,-0.5532 -1.5415,-0.5532 -0.34376,0 -0.64275,0.057 -0.89697,0.1718 -0.25424,0.1146 -0.4655,0.2722 -0.63379,0.4727 -0.1683,0.2005 -0.29363,0.4315 -0.37598,0.6929 -0.0824,0.2614 -0.12354,0.5353 -0.12354,0.8217 0,0.6374 0.18083,1.1387 0.54249,1.5039 0.36165,0.3653 0.86832,0.5479 1.52001,0.5479 0.35091,0 0.65527,-0.056 0.91309,-0.1665 0.25781,-0.111 0.47086,-0.265 0.63916,-0.4619 0.16829,-0.197 0.29361,-0.4243 0.37598,-0.6822 0.0823,-0.2578 0.12353,-0.5263 0.12353,-0.8056 z m 0.8916,7.6592 c 0,-0.4154 -0.17009,-0.7359 -0.51025,-0.9615 -0.34018,-0.2255 -0.8003,-0.3455 -1.38037,-0.3598 l -2.50293,-0.086 c -0.22917,0.1791 -0.41716,0.3492 -0.56397,0.5103 -0.14681,0.1611 -0.26318,0.3151 -0.34912,0.4619 -0.0859,0.1468 -0.14502,0.2918 -0.17724,0.4351 -0.0322,0.1432 -0.0483,0.29 -0.0483,0.4404 0,0.4655 0.23632,0.8182 0.70898,1.0581 0.47265,0.2399 1.13151,0.3599 1.97656,0.3599 0.53711,0 0.98649,-0.052 1.34815,-0.1558 0.36165,-0.1038 0.65348,-0.2417 0.87549,-0.4136 0.222,-0.1718 0.38134,-0.3688 0.47802,-0.5908 0.0967,-0.222 0.14502,-0.4547 0.14502,-0.6982 z"
         id="path3975"
         inkscape:connector-curvature="0" />
      <path
         d="m 143.91278,1018.5564 c -1e-5,0.2793 -0.0698,0.478 -0.20947,0.5962 -0.13966,0.1182 -0.299,0.1772 -0.47803,0.1772 l -6.33789,0 c 0,0.5371 0.0537,1.0205 0.16113,1.4502 0.10742,0.4297 0.28646,0.7985 0.53711,1.1065 0.25065,0.3079 0.5765,0.5442 0.97754,0.709 0.40104,0.1647 0.8916,0.247 1.47168,0.247 0.45833,0 0.86653,-0.038 1.22461,-0.1128 0.35807,-0.075 0.6678,-0.1593 0.9292,-0.2524 0.26138,-0.093 0.47623,-0.1772 0.64453,-0.2524 0.16829,-0.075 0.2954,-0.1128 0.38135,-0.1128 0.0501,0 0.0949,0.012 0.13428,0.038 0.0394,0.025 0.0698,0.063 0.0913,0.1128 0.0215,0.05 0.0376,0.1199 0.0483,0.2094 0.0107,0.09 0.0161,0.1988 0.0161,0.3277 -1e-5,0.093 -0.004,0.1736 -0.0107,0.2417 -0.007,0.068 -0.0161,0.1289 -0.0269,0.1826 -0.0108,0.054 -0.0287,0.102 -0.0537,0.145 -0.0251,0.043 -0.0573,0.084 -0.0967,0.1235 -0.0394,0.039 -0.15577,0.1039 -0.34912,0.1934 -0.19337,0.09 -0.44402,0.1772 -0.75195,0.2632 -0.30796,0.086 -0.66424,0.1629 -1.06885,0.2309 -0.40463,0.068 -0.83611,0.1021 -1.29444,0.1021 -0.79492,0 -1.49137,-0.111 -2.08935,-0.333 -0.59799,-0.222 -1.10108,-0.5515 -1.50928,-0.9883 -0.4082,-0.4369 -0.71615,-0.9847 -0.92383,-1.6436 -0.20768,-0.6588 -0.31152,-1.4251 -0.31152,-2.2988 0,-0.8307 0.10742,-1.5773 0.32227,-2.2397 0.21484,-0.6625 0.52457,-1.2246 0.92919,-1.6866 0.40462,-0.4619 0.89339,-0.8164 1.46631,-1.0634 0.57292,-0.2471 1.21387,-0.3706 1.92285,-0.3706 0.75911,0 1.40543,0.1217 1.93897,0.3652 0.53352,0.2435 0.97216,0.5711 1.31592,0.9829 0.34374,0.4118 0.59618,0.8952 0.75732,1.4502 0.16112,0.555 0.24169,1.1476 0.2417,1.7778 z m -1.7832,-0.5264 c 0.0215,-0.931 -0.18442,-1.6614 -0.61768,-2.1914 -0.43327,-0.5299 -1.07601,-0.7949 -1.92822,-0.7949 -0.43685,0 -0.81999,0.082 -1.14941,0.2471 -0.32944,0.1647 -0.60515,0.3831 -0.82715,0.6552 -0.22201,0.2722 -0.39389,0.5891 -0.51563,0.9507 -0.12175,0.3617 -0.18978,0.7395 -0.2041,1.1333 z"
         id="path3977"
         inkscape:connector-curvature="0" />
      <path
         d="m 151.64716,1023.1003 c -1e-5,0.2077 -0.0143,0.3724 -0.043,0.4942 -0.0287,0.1217 -0.0716,0.2112 -0.12891,0.2685 -0.0573,0.057 -0.14323,0.111 -0.25781,0.1612 -0.11459,0.05 -0.24529,0.091 -0.39209,0.1235 -0.14682,0.032 -0.30258,0.059 -0.46729,0.081 -0.16472,0.022 -0.32943,0.032 -0.49414,0.032 -0.5013,0 -0.93099,-0.066 -1.28906,-0.1987 -0.35808,-0.1325 -0.6517,-0.333 -0.88086,-0.6016 -0.22917,-0.2685 -0.39567,-0.6087 -0.49951,-1.0205 -0.10384,-0.4118 -0.15576,-0.897 -0.15576,-1.4556 l 0,-5.6504 -1.35352,0 c -0.10742,0 -0.19336,-0.057 -0.25781,-0.1718 -0.0644,-0.1146 -0.0967,-0.3008 -0.0967,-0.5586 0,-0.1361 0.009,-0.2507 0.0268,-0.3438 0.0179,-0.093 0.0412,-0.1701 0.0698,-0.2309 0.0286,-0.061 0.0662,-0.1039 0.11279,-0.1289 0.0465,-0.025 0.0985,-0.038 0.15576,-0.038 l 1.34278,0 0,-2.2989 c 0,-0.05 0.0125,-0.097 0.0376,-0.1396 0.0251,-0.043 0.0716,-0.081 0.13965,-0.1128 0.068,-0.032 0.15934,-0.055 0.27393,-0.07 0.11458,-0.014 0.25781,-0.021 0.42969,-0.021 0.17903,0 0.32584,0.01 0.44043,0.021 0.11458,0.014 0.20409,0.038 0.26855,0.07 0.0644,0.032 0.111,0.07 0.13965,0.1128 0.0286,0.043 0.043,0.09 0.043,0.1396 l 0,2.2989 2.48144,0 c 0.0573,0 0.10742,0.012 0.15039,0.038 0.043,0.025 0.0806,0.068 0.1128,0.1289 0.0322,0.061 0.0555,0.1378 0.0698,0.2309 0.0143,0.093 0.0215,0.2077 0.0215,0.3438 -1e-5,0.2578 -0.0322,0.444 -0.0967,0.5586 -0.0645,0.1146 -0.1504,0.1718 -0.25782,0.1718 l -2.48144,0 0,5.3926 c -1e-5,0.666 0.0985,1.1691 0.29541,1.5093 0.19693,0.3402 0.54964,0.5103 1.0581,0.5102 0.16471,10e-5 0.31152,-0.016 0.44043,-0.048 0.1289,-0.032 0.24349,-0.066 0.34375,-0.102 0.10026,-0.036 0.1862,-0.07 0.25782,-0.1021 0.0716,-0.032 0.13606,-0.048 0.19336,-0.048 0.0358,0 0.0698,0.01 0.10205,0.027 0.0322,0.018 0.0573,0.052 0.0752,0.1021 0.0179,0.05 0.034,0.1181 0.0483,0.2041 0.0143,0.086 0.0215,0.1933 0.0215,0.3222 z"
         id="path3979"
         inkscape:connector-curvature="0" />
    </g>
    <path
       style="color:#000000;fill:none;stroke:#be2049;stroke-width:2;stroke-linecap:round;stroke-opacity:1;marker:none;visibility:visible;display:inline;overflow:visible;enable-background:accumulate"
       d="m 166.0625,983.96486 0,-3.21875 c 0,-2.96786 -2.37589,-5.34375 -5.34375,-5.34375 l -152.15625,0 c -2.9678572,0 -5.34375,2.37589 -5.34375,5.34375 l 0,62.49999 c 0,2.9678 2.3758928,5.375 5.34375,5.375 l 3.9375,0"
       id="rect4018"
       inkscape:connector-curvature="0"
       sodipodi:nodetypes="cssssssc" />
    <g
       id="g4053"
       transform="matrix(1,0,0,0.5,-2.3214285,524.27609)">
      <path
         id="path4016"
         d="m 20.846839,1048.6642 c -2.1e-5,0.8421 -0.159748,1.4156 -0.479102,1.7205 -0.319413,0.3049 -0.907378,0.4574 -1.763953,0.4574 -0.84204,0 -1.419138,-0.148 -1.731274,-0.4466 -0.312137,-0.2977 -0.468215,-0.8602 -0.468215,-1.6877 0,-0.8419 0.159748,-1.4155 0.479101,-1.7203 0.319394,-0.305 0.907378,-0.4574 1.763954,-0.4574 0.842039,0 1.419138,0.148 1.731274,0.4464 0.312136,0.2976 0.468194,0.8602 0.468215,1.6877 z"
         style="font-size:22px;font-style:normal;font-variant:normal;font-weight:normal;font-stretch:normal;text-align:center;line-height:125%;letter-spacing:0px;word-spacing:0px;text-anchor:middle;fill:#be2049;fill-opacity:1;stroke:none;font-family:Calibri;-inkscape-font-specification:Calibri"
         inkscape:connector-curvature="0" />
      <path
         inkscape:connector-curvature="0"
         style="font-size:22px;font-style:normal;font-variant:normal;font-weight:normal;font-stretch:normal;text-align:center;line-height:125%;letter-spacing:0px;word-spacing:0px;text-anchor:middle;opacity:0.6;fill:#be2049;fill-opacity:1;stroke:none;font-family:Calibri;-inkscape-font-specification:Calibri"
         d="m 30.811334,1048.6642 c -2.1e-5,0.8421 -0.159748,1.4156 -0.479101,1.7205 -0.319414,0.3049 -0.907378,0.4574 -1.763953,0.4574 -0.84204,0 -1.419138,-0.148 -1.731274,-0.4466 -0.312137,-0.2977 -0.468215,-0.8602 -0.468215,-1.6877 0,-0.8419 0.159748,-1.4155 0.479101,-1.7203 0.319393,-0.305 0.907378,-0.4574 1.763953,-0.4574 0.84204,0 1.419138,0.148 1.731274,0.4464 0.312137,0.2976 0.468194,0.8602 0.468215,1.6877 z"
         id="path4039" />
      <path
         id="path4041"
         d="m 40.775831,1048.6642 c -2.1e-5,0.8421 -0.159748,1.4156 -0.479101,1.7205 -0.319414,0.3049 -0.907378,0.4574 -1.763953,0.4574 -0.84204,0 -1.419138,-0.148 -1.731274,-0.4466 -0.312137,-0.2977 -0.468215,-0.8602 -0.468215,-1.6877 0,-0.8419 0.159748,-1.4155 0.479101,-1.7203 0.319394,-0.305 0.907378,-0.4574 1.763953,-0.4574 0.84204,0 1.419138,0.148 1.731274,0.4464 0.312137,0.2976 0.468194,0.8602 0.468215,1.6877 z"
         style="font-size:22px;font-style:normal;font-variant:normal;font-weight:normal;font-stretch:normal;text-align:center;line-height:125%;letter-spacing:0px;word-spacing:0px;text-anchor:middle;opacity:0.2;fill:#be2049;fill-opacity:1;stroke:none;font-family:Calibri;-inkscape-font-specification:Calibri"
         inkscape:connector-curvature="0" />
      <path
         inkscape:connector-curvature="0"
         style="font-size:22px;font-style:normal;font-variant:normal;font-weight:normal;font-stretch:normal;text-align:center;line-height:125%;letter-spacing:0px;word-spacing:0px;text-anchor:middle;opacity:0.4;fill:#be2049;fill-opacity:1;stroke:none;font-family:Calibri;-inkscape-font-specification:Calibri"
         d="m 35.793584,1048.6642 c -2.1e-5,0.8421 -0.159748,1.4156 -0.479101,1.7205 -0.319414,0.3049 -0.907378,0.4574 -1.763954,0.4574 -0.842039,0 -1.419138,-0.148 -1.731274,-0.4466 -0.312136,-0.2977 -0.468214,-0.8602 -0.468214,-1.6877 0,-0.8419 0.159747,-1.4155 0.479101,-1.7203 0.319393,-0.305 0.907378,-0.4574 1.763953,-0.4574 0.84204,0 1.419138,0.148 1.731274,0.4464 0.312137,0.2976 0.468194,0.8602 0.468215,1.6877 z"
         id="path4043" />
      <path
         id="path4045"
         d="m 25.829086,1048.6642 c -2e-5,0.8421 -0.159747,1.4156 -0.479101,1.7205 -0.319414,0.3049 -0.907378,0.4574 -1.763953,0.4574 -0.84204,0 -1.419138,-0.148 -1.731274,-0.4466 -0.312137,-0.2977 -0.468215,-0.8602 -0.468215,-1.6877 0,-0.8419 0.159748,-1.4155 0.479101,-1.7203 0.319394,-0.305 0.907378,-0.4574 1.763953,-0.4574 0.84204,0 1.419139,0.148 1.731274,0.4464 0.312137,0.2976 0.468195,0.8602 0.468215,1.6877 z"
         style="font-size:22px;font-style:normal;font-variant:normal;font-weight:normal;font-stretch:normal;text-align:center;line-height:125%;letter-spacing:0px;word-spacing:0px;text-anchor:middle;opacity:0.8;fill:#be2049;fill-opacity:1;stroke:none;font-family:Calibri;-inkscape-font-specification:Calibri"
         inkscape:connector-curvature="0" />
    </g>
  </g>
</svg>
