<?xml version="1.0" encoding="UTF-8" standalone="no"?>
<!-- Created with Inkscape (http://www.inkscape.org/) -->

<svg
   xmlns:dc="http://purl.org/dc/elements/1.1/"
   xmlns:cc="http://creativecommons.org/ns#"
   xmlns:rdf="http://www.w3.org/1999/02/22-rdf-syntax-ns#"
   xmlns:svg="http://www.w3.org/2000/svg"
   xmlns="http://www.w3.org/2000/svg"
   xmlns:sodipodi="http://sodipodi.sourceforge.net/DTD/sodipodi-0.dtd"
   xmlns:inkscape="http://www.inkscape.org/namespaces/inkscape"
   width="170"
   height="80"
   id="svg2"
   version="1.1"
   inkscape:version="0.48.4 r9939"
   sodipodi:docname="catalogue.svg"
   inkscape:export-filename="C:\work\wirecloud\ooi_table\img\catalogue.png"
   inkscape:export-xdpi="90"
   inkscape:export-ydpi="90">
  <defs
     id="defs4">
    <inkscape:path-effect
       effect="spiro"
       id="path-effect4259"
       is_visible="true" />
    <inkscape:path-effect
       effect="spiro"
       id="path-effect4125"
       is_visible="true" />
    <inkscape:path-effect
       effect="spiro"
       id="path-effect4121"
       is_visible="true" />
    <linearGradient
       id="linearGradient4107">
      <stop
         style="stop-color:#828282;stop-opacity:1;"
         offset="0"
         id="stop4109" />
      <stop
         style="stop-color:#333333;stop-opacity:1;"
         offset="1"
         id="stop4111" />
    </linearGradient>
    <inkscape:path-effect
       effect="spiro"
       id="path-effect4024"
       is_visible="true" />
    <inkscape:path-effect
       is_visible="true"
       id="path-effect4020"
       effect="spiro" />
    <inkscape:path-effect
       effect="spiro"
       id="path-effect4016"
       is_visible="true" />
    <inkscape:path-effect
       effect="spiro"
       id="path-effect3896"
       is_visible="true" />
    <filter
       id="filter3852"
       style="color-interpolation-filters:sRGB;"
       inkscape:label="Drop Shadow">
      <feFlood
         id="feFlood3854"
         flood-opacity="0.25"
         flood-color="rgb(0,0,0)"
         result="flood" />
      <feComposite
         id="feComposite3856"
         in2="SourceGraphic"
         in="flood"
         operator="in"
         result="composite1" />
      <feGaussianBlur
         id="feGaussianBlur3858"
         in="composite"
         stdDeviation="2.5"
         result="blur" />
      <feOffset
         id="feOffset3860"
         dx="2"
         dy="2"
         result="offset" />
      <feComposite
         id="feComposite3862"
         in2="offset"
         in="SourceGraphic"
         operator="over"
         result="composite2" />
    </filter>
  </defs>
  <sodipodi:namedview
     id="base"
     pagecolor="#ffffff"
     bordercolor="#666666"
     borderopacity="1.0"
     inkscape:pageopacity="1"
     inkscape:pageshadow="2"
     inkscape:zoom="1"
     inkscape:cx="44.445086"
     inkscape:cy="50.610945"
     inkscape:document-units="px"
     inkscape:current-layer="layer1"
     showgrid="false"
     borderlayer="true"
     inkscape:showpageshadow="false"
     inkscape:window-width="1768"
     inkscape:window-height="976"
     inkscape:window-x="476"
     inkscape:window-y="135"
     inkscape:window-maximized="0" />
  <metadata
     id="metadata7">
    <rdf:RDF>
      <cc:Work
         rdf:about="">
        <dc:format>image/svg+xml</dc:format>
        <dc:type
           rdf:resource="http://purl.org/dc/dcmitype/StillImage" />
        <dc:title></dc:title>
      </cc:Work>
    </rdf:RDF>
  </metadata>
  <g
     inkscape:label="Ebene 1"
     inkscape:groupmode="layer"
     id="layer1"
     transform="translate(0,-972.36218)">
    <g
       id="g3763"
       transform="translate(0,0.33494377)"
       style="filter:url(#filter3852)">
      <rect
         style="fill:#f1edd8;fill-opacity:1;stroke:#a2a2a2;stroke-width:0.94066936;stroke-linecap:round;stroke-linejoin:round;stroke-miterlimit:4;stroke-opacity:1;stroke-dasharray:none"
         id="rect4190"
         width="53.425293"
         height="30.934422"
         x="-285.81586"
         y="981.50909"
         transform="matrix(0.98380503,-0.17924192,0.29195846,0.956431,0,0)"
         ry="2.5475407" />
      <path
         style="fill:none;stroke:#2a4cc9;stroke-width:1.25;stroke-linecap:round;stroke-linejoin:miter;stroke-miterlimit:4;stroke-opacity:1;stroke-dasharray:none"
         inkscape:path-effect="#path-effect4259"
         inkscape:original-d="m 22.097087,1017.2906 c 0.08398,-1.7385 -0.553637,-3.4813 0.303421,-5.0409 0.668417,-1.2163 1.184822,-2.4889 2.04046,-3.5757 0.890746,-1.1314 2.071007,-1.9478 3.401363,-2.3435 1.447978,-0.4307 3.454662,0.5471 4.418735,-0.889 0.687742,-1.0245 0.843208,-1.6485 1.94523,-1.6743 1.399547,-0.033 3.252433,-0.3593 4.282214,-0.6525 1.753599,-0.4992 3.620887,0.1647 5.352116,-0.3198 1.194878,-0.3344 1.959809,-0.5183 3.360239,-0.8401 1.383378,-0.3179 2.085768,-0.567 2.473393,-1.98832 0.534016,-1.95803 -0.439844,-4.20312 0.70711,-6.0104 0.848222,-1.33656 2.197308,-2.24853 3.623925,-2.91682 1.186949,-0.55602 1.936322,-1.78909 2.287236,-2.96481 0.242414,-0.8122 0.130283,-2.16991 0.625447,-2.6978 0.359694,-0.38347 0.527305,-1.1218 1.070553,-1.40434 0.208109,0.0709 0.0042,-0.24313 0.171035,-0.18091"
         id="path4257"
         d="m 22.097087,1017.2906 c -0.33751,-1.6686 -0.231801,-3.4248 0.303421,-5.0409 0.434126,-1.3108 1.145251,-2.5243 2.04046,-3.5757 0.906768,-1.0649 2.048035,-1.9902 3.401363,-2.3435 0.732681,-0.1913 1.497507,-0.2082 2.251266,-0.2807 0.75376,-0.072 1.523838,-0.2094 2.167469,-0.6083 0.728618,-0.4516 1.231686,-1.1992 1.94523,-1.6743 0.611535,-0.4071 1.347888,-0.5921 2.079688,-0.6571 0.7318,-0.065 1.468162,-0.017 2.202526,0 1.788801,0.052 3.582105,-0.056 5.352116,-0.3198 1.144614,-0.1706 2.286582,-0.4083 3.360239,-0.8401 0.501668,-0.2018 0.989245,-0.447 1.421216,-0.7722 0.431972,-0.3253 0.80791,-0.7337 1.052177,-1.21612 0.230585,-0.45539 0.338619,-0.96491 0.377506,-1.47387 0.03889,-0.50895 0.01088,-1.02039 -0.01767,-1.53003 -0.02856,-0.50964 -0.05764,-1.02094 -0.02091,-1.53006 0.03673,-0.50912 0.141468,-1.01911 0.368188,-1.47644 0.349117,-0.70422 0.964694,-1.24114 1.619131,-1.67648 0.654437,-0.43534 1.361733,-0.78836 2.004794,-1.24034 1.040099,-0.73103 1.915032,-1.74921 2.287236,-2.96481 0.270742,-0.88423 0.270874,-1.84373 0.625447,-2.6978 0.228212,-0.5497 0.600949,-1.03865 1.070553,-1.40434 l 0.171035,-0.18091"
         inkscape:connector-curvature="0"
         sodipodi:nodetypes="cssssssssssssscc" />
      <path
         style="font-size:medium;font-style:normal;font-variant:normal;font-weight:normal;font-stretch:normal;text-indent:0;text-align:start;text-decoration:none;line-height:normal;letter-spacing:normal;word-spacing:normal;text-transform:none;direction:ltr;block-progression:tb;writing-mode:lr-tb;text-anchor:start;baseline-shift:baseline;color:#000000;fill:#ffffff;fill-opacity:1;stroke:#b3b3b3;stroke-width:0.62500000000000000;stroke-miterlimit:4;stroke-opacity:1;stroke-dasharray:none;marker:none;visibility:visible;display:inline;overflow:visible;enable-background:accumulate;font-family:Sans;-inkscape-font-specification:Sans"
         d="M 34.862595,15.761328 C 34.869488,16.479907 34.623373,17.764662 34.375,18.75 34.019532,20.160202 33.387298,21.587625 32.8125,23 32.103519,22.567541 31.354293,22.209491 30.5,22.0625 29.570839,21.90263 28.556877,21.84324 27.46875,21.875 24.204368,21.9703 20.380009,22.80351 17.0625,23.71875 12.639154,24.93907 9.125,26.3125 9.125,26.3125 L 8.65625,26.5 9,27.4375 9.46875,27.25 c 0,0 3.50549,-1.35703 7.875,-2.5625 4.36951,-1.20547 9.638436,-2.23463 13,-1.65625 0.739144,0.127175 1.428702,0.440996 2.09375,0.875 -1.136391,2.64647 -2.445952,5.081318 -3.875,6.59375 -1.079445,1.1425 -2.764647,1.59745 -4.53125,2.09375 -1.766603,0.4963 -3.634854,1.01275 -4.96875,2.40625 -1.117344,1.1675 -1.927908,3.1846 -2.53125,4.9375 -0.603334,1.7529 -0.9375,3.25 -0.9375,3.25 l -0.125,0.5 0.96875,0.21875 0.125,-0.5 c 0,0 0.320806,-1.4241 0.90625,-3.125 0.585443,-1.7009 1.471338,-3.651 2.34375,-4.5625 1.087359,-1.1361 2.763804,-1.6284 4.53125,-2.125 1.767446,-0.4966 3.612069,-1.0348 4.9375,-2.4375 0.647516,-0.6854 1.267819,-1.48245 1.84375,-2.40625 0.787333,-1.262843 1.499587,-2.710999 2.15625,-4.21875 0.437423,0.342245 0.868882,0.712275 1.3125,1.09375 1.39133,1.19643 2.85105,2.4731 4.75,2.8125 1.590815,0.2842 3.737437,-0.15705 5.53125,-0.625 1.793813,-0.46796 3.21875,-1 3.21875,-1 L 48.5625,26.625 48.21875,25.6875 47.75,25.875 c 0,0 -1.384384,0.51467 -3.125,0.96875 -1.740616,0.45408 -3.851715,0.81569 -5.09375,0.59375 -1.548068,-0.27661 -2.889255,-1.39675 -4.28125,-2.59375 -0.508852,-0.43757 -1.049124,-0.844743 -1.59375,-1.25 0.622323,-1.512807 1.350849,-3.248693 1.6875,-4.53125 0.336651,-1.282557 0.541271,-2.471701 0.487595,-3.082422 0,0 -0.413143,-0.03108 -0.96875,-0.21875 z"
         transform="translate(0,972.02724)"
         id="path4262"
         inkscape:connector-curvature="0"
         sodipodi:nodetypes="cscsssccccssccscsccccssscccscsccccsssczcc" />
      <rect
         style="fill:#b3b3b3;fill-opacity:1;stroke:none"
         id="rect4271"
         width="7.0850058"
         height="3.7853622"
         x="-404.88986"
         y="955.09546"
         transform="matrix(0.94530748,-0.32618057,0.42126611,0.90693708,0,0)"
         ry="0"
         rx="0"
         inkscape:transform-center-x="1.5" />
      <rect
         rx="0"
         ry="0"
         transform="matrix(0.97452897,0.22426165,-0.22426165,0.97452897,0,0)"
         y="957.11987"
         x="250.38161"
         height="3.875"
         width="3.875"
         id="rect4273"
         style="fill:#b3b3b3;fill-opacity:1;stroke:none" />
      <path
         style="fill:#d74b4b;fill-opacity:1;stroke:#000000;stroke-width:1.10349333;stroke-linecap:butt;stroke-linejoin:round;stroke-miterlimit:4;stroke-opacity:1;stroke-dasharray:none"
         d="m 42.752001,982.37068 c -1.723764,0 -3.144956,1.36602 -3.144956,3.08978 0,1.35598 0.88857,2.49354 2.096638,2.92426 l 1.103493,6.28992 0.937969,-6.28992 c 1.225321,-0.42131 2.096638,-1.55594 2.096638,-2.92426 0,-1.72376 -1.366017,-3.08978 -3.089782,-3.08978 z"
         id="path4275"
         inkscape:connector-curvature="0" />
    </g>
    <text
       xml:space="preserve"
       style="font-size:24px;font-style:normal;font-weight:normal;text-align:end;line-height:125%;letter-spacing:0px;word-spacing:0px;text-anchor:end;fill:#000000;fill-opacity:1;stroke:none;font-family:Sans"
       x="160.61426"
       y="1044.5334"
       id="text3759"
       sodipodi:linespacing="125%"><tspan
         sodipodi:role="line"
         id="tspan3761"
         x="160.61426"
         y="1044.5334">OOI GIS Map</tspan></text>
  </g>
</svg>
