<?xml version="1.0" encoding="UTF-8" standalone="no"?>
<!-- Created with Inkscape (http://www.inkscape.org/) -->

<svg
   xmlns:dc="http://purl.org/dc/elements/1.1/"
   xmlns:cc="http://creativecommons.org/ns#"
   xmlns:rdf="http://www.w3.org/1999/02/22-rdf-syntax-ns#"
   xmlns:svg="http://www.w3.org/2000/svg"
   xmlns="http://www.w3.org/2000/svg"
   xmlns:xlink="http://www.w3.org/1999/xlink"
   xmlns:sodipodi="http://sodipodi.sourceforge.net/DTD/sodipodi-0.dtd"
   xmlns:inkscape="http://www.inkscape.org/namespaces/inkscape"
   width="25"
   height="25"
   id="svg2"
   version="1.1"
   inkscape:version="0.48.4 r9939"
   sodipodi:docname="fire.svg"
   inkscape:export-filename="C:\work\wirecloud\openlayers\img\fire.png"
   inkscape:export-xdpi="90"
   inkscape:export-ydpi="90">
  <defs
     id="defs4">
    <linearGradient
       id="linearGradient3951">
      <stop
         style="stop-color:#f5e923;stop-opacity:1;"
         offset="0"
         id="stop3953" />
      <stop
         style="stop-color:#ec9e49;stop-opacity:1;"
         offset="1"
         id="stop3955" />
    </linearGradient>
    <filter
       id="filter3838"
       style="color-interpolation-filters:sRGB;"
       inkscape:label="Drop Shadow">
      <feFlood
         id="feFlood3840"
         flood-opacity="0.35"
         flood-color="rgb(0,0,0)"
         result="flood" />
      <feComposite
         id="feComposite3842"
         in2="SourceGraphic"
         in="flood"
         operator="in"
         result="composite1" />
      <feGaussianBlur
         id="feGaussianBlur3844"
         in="composite"
         stdDeviation="1.5"
         result="blur" />
      <feOffset
         id="feOffset3846"
         dx="2"
         dy="2"
         result="offset" />
      <feComposite
         id="feComposite3848"
         in2="offset"
         in="SourceGraphic"
         operator="over"
         result="composite2" />
    </filter>
    <linearGradient
       inkscape:collect="always"
       xlink:href="#linearGradient3951"
       id="linearGradient3957"
       x1="8.1431684"
       y1="1037.9919"
       x2="20.936598"
       y2="1047.7146"
       gradientUnits="userSpaceOnUse"
       gradientTransform="translate(-0.5372809,0.1909)" />
    <linearGradient
       inkscape:collect="always"
       xlink:href="#linearGradient3951"
       id="linearGradient4191"
       x1="9.3330336"
       y1="1147.1362"
       x2="11.084444"
       y2="1158.0881"
       gradientUnits="userSpaceOnUse"
       gradientTransform="translate(-2.0338003,-0.62229561)" />
    <filter
       inkscape:collect="always"
       id="filter4193">
      <feGaussianBlur
         inkscape:collect="always"
         stdDeviation="0.076406558"
         id="feGaussianBlur4195" />
    </filter>
    <linearGradient
       inkscape:collect="always"
       xlink:href="#linearGradient3951"
       id="linearGradient4199"
       gradientUnits="userSpaceOnUse"
       gradientTransform="translate(0.79092235,-0.4840077)"
       x1="9.3330336"
       y1="1147.1362"
       x2="11.084444"
       y2="1158.0881" />
    <linearGradient
       inkscape:collect="always"
       xlink:href="#linearGradient3951"
       id="linearGradient4203"
       gradientUnits="userSpaceOnUse"
       gradientTransform="translate(0.79092235,-0.4840077)"
       x1="9.3330336"
       y1="1147.1362"
       x2="11.084444"
       y2="1158.0881" />
    <linearGradient
       inkscape:collect="always"
       xlink:href="#linearGradient3951"
       id="linearGradient4232"
       x1="6.4413323"
       y1="1149.2561"
       x2="13.160982"
       y2="1149.2561"
       gradientUnits="userSpaceOnUse"
       gradientTransform="translate(0.79092234,-3.4571978)" />
    <filter
       inkscape:collect="always"
       id="filter4234">
      <feGaussianBlur
         inkscape:collect="always"
         stdDeviation="0.06412667"
         id="feGaussianBlur4236" />
    </filter>
    <linearGradient
       inkscape:collect="always"
       xlink:href="#linearGradient3951"
       id="linearGradient4243"
       gradientUnits="userSpaceOnUse"
       gradientTransform="matrix(1.1773766,0,0,0.85889084,1.0220235,-977.07275)"
       x1="6.4413323"
       y1="1149.2561"
       x2="13.160982"
       y2="1149.2561" />
    <linearGradient
       inkscape:collect="always"
       xlink:href="#linearGradient3951"
       id="linearGradient4245"
       gradientUnits="userSpaceOnUse"
       gradientTransform="translate(-2.0338003,-0.62229561)"
       x1="9.3330336"
       y1="1147.1362"
       x2="11.084444"
       y2="1158.0881" />
    <linearGradient
       inkscape:collect="always"
       xlink:href="#linearGradient3951"
       id="linearGradient4247"
       gradientUnits="userSpaceOnUse"
       gradientTransform="translate(0.79092235,-0.4840077)"
       x1="9.3330336"
       y1="1147.1362"
       x2="11.084444"
       y2="1158.0881" />
    <linearGradient
       inkscape:collect="always"
       xlink:href="#linearGradient3951"
       id="linearGradient4250"
       gradientUnits="userSpaceOnUse"
       gradientTransform="matrix(1.1773766,0,0,0.85889084,1.0220235,-977.07275)"
       x1="8.0178499"
       y1="1151.2114"
       x2="10.983886"
       y2="1160.6791" />
    <filter
       inkscape:collect="always"
       id="filter4254">
      <feGaussianBlur
         inkscape:collect="always"
         stdDeviation="0.064664183"
         id="feGaussianBlur4256" />
    </filter>
  </defs>
  <sodipodi:namedview
     id="base"
     pagecolor="#ffffff"
     bordercolor="#666666"
     borderopacity="1.0"
     inkscape:pageopacity="0.0"
     inkscape:pageshadow="2"
     inkscape:zoom="16"
     inkscape:cx="34.795397"
     inkscape:cy="10.403061"
     inkscape:document-units="px"
     inkscape:current-layer="layer1"
     showgrid="false"
     inkscape:window-width="2560"
     inkscape:window-height="1378"
     inkscape:window-x="-8"
     inkscape:window-y="-8"
     inkscape:window-maximized="1" />
  <metadata
     id="metadata7">
    <rdf:RDF>
      <cc:Work
         rdf:about="">
        <dc:format>image/svg+xml</dc:format>
        <dc:type
           rdf:resource="http://purl.org/dc/dcmitype/StillImage" />
        <dc:title></dc:title>
      </cc:Work>
    </rdf:RDF>
  </metadata>
  <g
     inkscape:label="Ebene 1"
     inkscape:groupmode="layer"
     id="layer1"
     transform="translate(0,-1027.3622)">
    <g
       transform="matrix(1.1063033,0,0,0.90391125,0.4246726,0.17702989)"
       style="font-size:16.43151474px;font-style:normal;font-weight:normal;line-height:125%;letter-spacing:0px;word-spacing:0px;fill:#000000;fill-opacity:1;stroke:none;font-family:Sans"
       id="text3959">
      <g
         id="g4238"
         transform="matrix(1.064244,0,0,0.95019377,0.08208421,58.920389)">
        <path
           style="fill:url(#linearGradient4250);fill-opacity:1;stroke:#ca521e;stroke-width:1.00560331px;stroke-linecap:round;stroke-linejoin:bevel;stroke-opacity:1;filter:url(#filter4234)"
           d="m 13.59375,0.84375 c -0.03506,0.0309201 -0.037,0.0869511 -0.0625,0.125 -0.04114,0.0609812 -0.08926,0.0924344 -0.125,0.15625 -0.08188,0.1461832 -0.130702,0.4256787 -0.15625,0.5625 -0.08475,0.4539238 -0.0625,0.2076649 -0.0625,0.625 l 0,0.3125 c 0.04435,-0.079018 0.07581,-0.1731293 0.125,-0.25 0.365218,-0.5706471 -0.04257,0.200615 0.21875,-0.34375 0.06609,-0.1376802 0.159137,-0.2543122 0.1875,-0.40625 0.01095,-0.058405 0,-0.1280648 0,-0.1875 0,-0.060981 0.01309,-0.4220263 0,-0.46875 -0.0075,-0.0274845 -0.04848,-0.0375922 -0.0625,-0.0625 -0.0099,-0.0180367 0.01568,-0.0487578 0,-0.0625 -0.01568,-0.0137422 -0.04683,-0.0137422 -0.0625,0 z M 13.1875,2.625 c -0.08063,0.1439501 -0.207532,0.3795699 -0.25,0.53125 -0.01613,0.057632 0.01095,0.1290954 0,0.1875 -0.02188,0.1172601 -0.05216,0.1682931 -0.0625,0.1875 -0.0057,-0.027442 0,-0.07535 0,0.15625 0,0.059349 -0.0094,0.1290954 0,0.1875 0.01293,0.080822 0.04267,0.1388732 0.0625,0.21875 0.02451,0.098515 0.04228,0.2132122 0.0625,0.3125 0.09204,0.4519484 0.0625,0.2923693 0.0625,0.78125 0,0.1187846 0.01205,0.2254807 0,0.34375 -0.01023,0.1005761 -0.04228,0.2131263 -0.0625,0.3125 -0.0134,0.065791 -0.09214,0.5369637 -0.125,0.625 -0.03135,0.083914 -0.115984,0.1692643 -0.15625,0.25 -0.04848,0.097398 -0.08065,0.2135558 -0.125,0.3125 -0.04435,0.09903 -0.08724,0.1800727 -0.125,0.28125 -0.0289,0.077386 -0.03739,0.1718409 -0.0625,0.25 -0.002,0.00636 -0.156046,0.34375 -0.15625,0.34375 -0.01375,0.098257 0,0.2135558 0,0.3125 0,0.1979743 -0.02007,0.3965487 0,0.59375 0.01023,0.1004902 0.07353,0.1819622 0.09375,0.28125 0.02418,0.118705 0.104939,0.5611273 0.125,0.71875 -0.0059,0.00658 -0.0253,-0.00742 -0.03125,0 -0.06605,0.298636 -0.49374,0.682302 -0.96875,0.59375 C 11.396478,10.241257 10.625608,9.9954805 10.3125,9.53125 9.9840249,9.1878654 9.6498288,8.5244524 9.75,7.96875 9.5560354,7.537415 9.5969289,7.0601277 9.59375,6.59375 9.4440866,5.9434837 10.000335,5.397346 9.875,4.75 9.989919,4.2285674 9.7231837,4.7879535 9.59375,4.96875 9.2349845,5.1955831 9.4003534,5.5160559 9.25,5.90625 9.2245828,5.6148283 9.0582614,6.0608722 9.0625,6.25 9.0403594,6.8458985 8.4355185,7.3138825 8.46875,7.6875 8.00854,8.1393625 7.9064783,8.827213 7.59375,9.34375 c -0.1207771,0.597015 0.1783316,1.12895 0.125,1.71875 -0.02459,0.561629 0.1267362,1.145296 -0.1875,1.65625 -0.4884698,0.634806 -1.1961856,1.104756 -1.75,1.65625 -0.6298635,0.540758 -1.3985156,1.172531 -1.25,2.03125 -0.038715,0.535261 0.066145,1.036701 0.28125,1.53125 0.2613969,0.482868 0.2065101,1.043757 0.53125,1.5 0.2105361,0.69656 0.5517131,1.37749 0.96875,1.96875 0.4246038,0.515678 1.1042357,0.942878 1.6875,1.40625 0.634297,0.590487 1.5785918,0.644719 2.375,0.3125 0.631671,0.242465 0.96244,0.299287 1.40625,0.28125 l 0.0625,0.03125 c -0.100283,-0.09826 1.000289,-0.331599 0.9375,-0.4375 0.192382,-0.265998 0.425086,-0.553386 0.53125,-0.78125 0.0418,-0.03291 0.09066,-0.0579 0.125,-0.09375 0.01085,0.01082 0.01952,0.02082 0.03125,0.03125 0.07431,0.180063 0.271595,0.383552 0.40625,0.59375 -0.04395,0.08369 0.695191,0.297355 0.625,0.375 l 0.0625,-0.03125 c 0.310637,0.01425 0.526622,-0.02715 0.96875,-0.21875 0.557433,0.262527 1.243534,0.216616 1.6875,-0.25 0.408246,-0.366167 0.859056,-0.7175 1.15625,-1.125 0.291898,-0.467227 0.540139,-1.012062 0.6875,-1.5625 0.227296,-0.360533 0.19204,-0.774677 0.375,-1.15625 0.150559,-0.390804 0.214598,-0.795775 0.1875,-1.21875 0.103951,-0.678579 -0.434137,-1.166431 -0.875,-1.59375 -0.387633,-0.435803 -0.876854,-0.810862 -1.21875,-1.3125 -0.219944,-0.403767 -0.107789,-0.868688 -0.125,-1.3125 -0.03733,-0.466073 0.178286,-0.903225 0.09375,-1.375 -0.218889,-0.408179 -0.302884,-0.955428 -0.625,-1.3125 0.02326,-0.295241 -0.390753,-0.654108 -0.40625,-1.125 0.003,-0.149453 -0.10721,-0.5115379 -0.125,-0.28125 -0.105237,-0.3083401 0.0011,-0.5395014 -0.25,-0.71875 -0.0906,-0.1428695 -0.267936,-0.5995477 -0.1875,-0.1875 -0.08773,0.5115473 0.292254,0.9548951 0.1875,1.46875 -0.0022,0.368542 0.04201,0.721649 -0.09375,1.0625 0.06766,0.423759 -0.183431,0.939431 -0.40625,1.21875 -0.04633,-0.127316 -0.09553,-0.240143 -0.125,-0.3125 C 15.42794,11.681017 15.335918,11.573277 15.3125,11.46875 15.264475,11.254371 15.393169,11.019493 15.25,10.8125 15.159987,10.491017 14.935535,10.048465 14.78125,9.75 14.718922,9.6294117 14.655291,9.5271818 14.59375,9.40625 14.478057,9.1789875 14.401757,8.9891152 14.3125,8.75 14.268149,8.6312154 14.228744,8.4946435 14.1875,8.375 14.140029,8.2372339 14.09416,8.1101234 14.0625,7.96875 14.027449,7.8122601 14.02363,7.6582077 14,7.5 13.979278,7.3612891 13.95967,7.2322891 13.9375,7.09375 l -0.21875,-1.25 C 13.696592,5.705125 13.689099,5.5430713 13.65625,5.40625 13.579137,5.0849389 13.44202,4.8395918 13.3125,4.53125 13.181187,4.0330074 13.28684,4.0230373 13.25,3.5625 13.238827,3.4228443 13.198685,3.2958198 13.1875,3.15625 c -0.01107,-0.1381955 0,-0.2677109 0,-0.40625 l 0,-0.125 z"
           transform="matrix(0.84934587,0,0,1.1642923,-0.07712913,1134.3594)"
           id="path4224"
           inkscape:connector-curvature="0" />
        <path
           style="opacity:0.5;fill:none;stroke:#ca521e;stroke-width:1;stroke-linecap:round;stroke-linejoin:bevel;stroke-miterlimit:4;stroke-opacity:1;stroke-dasharray:none;filter:url(#filter4254)"
           id="path4252"
           d="m 10.323638,19.905563 c -0.153218,-0.0056 -0.309826,-0.0024 -0.4578608,0.043 -0.040228,0.01234 -0.1529613,0.06962 -0.1165033,0.04861 1.1334501,-0.653237 1.3292651,-0.8263 0.9586431,-0.514048 -0.144879,0.212193 -0.144167,0.407077 0.01607,0.606125 0.218001,0.190842 0.510846,0.18326 0.782016,0.151309 0.05789,-0.01744 0.117601,-0.0297 0.173677,-0.05231 0.0572,-0.02306 0.218351,-0.114705 0.16479,-0.08413 -0.318268,0.181693 -0.633526,0.369229 -0.959059,0.537561 -0.05529,0.02859 0.100224,-0.07432 0.145607,-0.116926 0.109585,-0.102875 0.132135,-0.149699 0.21447,-0.270714 0.167565,-0.373953 -0.08393,-0.479038 -0.401356,-0.580457 -0.214888,-0.04681 -0.428719,-0.05839 -0.643538,-0.005 -0.3729037,0.0927 -1.4630823,0.769788 0.660586,-0.415484 -0.175782,0.148235 -0.288509,0.376414 -0.134912,0.588387 0.03589,0.04953 0.08653,0.08647 0.129791,0.129701 0.298746,0.195242 0.658812,0.360009 1.02545,0.310331 0.0562,-0.0076 0.110142,-0.02709 0.165212,-0.04063 0.519942,-0.327331 -0.340998,0.218395 -0.909225,0.483208 -0.03243,0.01511 0.0353,-0.0638 0.04128,-0.09907 0.01916,-0.11299 -0.04103,-0.196728 -0.111899,-0.27302 -0.02318,-0.0042 -0.04654,-0.01784 -0.06953,-0.0127 -0.02364,0.0053 -0.08103,0.0529 -0.05961,0.04158 0.355726,-0.18794 0.69872,-0.400883 1.062983,-0.571688 0.03684,-0.01727 -0.04965,0.06573 -0.06464,0.103558 -0.05084,0.1283 -0.02644,0.147905 1.03e-4,0.28023 0.165256,0.324882 0.491271,0.48595 0.852837,0.45188 0.07474,-0.007 0.146983,-0.03062 0.220475,-0.04594 0.291179,-0.13781 1.46162,-0.696953 -0.774463,0.449252 -0.04491,0.02302 0.07913,-0.06364 0.11173,-0.102165 0.07127,-0.08423 0.07783,-0.156239 0.0384,-0.251254 -0.02136,-0.01261 -0.03986,-0.03244 -0.06407,-0.03783 -0.06718,-0.01495 -0.120464,0.01995 -0.174747,0.05212 -0.0346,0.02051 -0.135721,0.0862 -0.10044,0.06688 1.03091,-0.564442 1.291141,-0.854657 0.934735,-0.481157 -0.167128,0.25015 -0.01782,0.289278 0.215296,0.249894 0.434319,-0.17445 0.562026,-0.232543 -0.835942,0.486788 -0.052,0.02676 0.09405,-0.0701 0.136004,-0.110832 0.108802,-0.105637 0.171343,-0.219553 0.219589,-0.360198 -4.67e-4,-0.0344 0.01082,-0.102216 -0.03067,-0.127719 -0.03375,-0.02074 -0.144556,0.06454 -0.10966,0.04579 1.054998,-0.566742 1.349139,-0.853816 0.965728,-0.496927 -0.09668,0.133162 -0.186879,0.376161 0.02807,0.45287 0.04419,0.01577 0.09213,0.01781 0.138193,0.02671 0.189324,-0.01113 0.164717,0.0068 0.345578,-0.07388 0.05822,-0.02597 0.22445,-0.120986 0.169068,-0.08941 -1.894765,1.080308 -1.035877,0.723912 -0.818413,0.382454 0.0091,-0.06086 -0.03569,-0.07693 -0.09055,-0.05509 -0.05412,0.02154 -0.191348,0.132175 -0.140139,0.104409 0.351601,-0.190642 0.696767,-0.39292 1.04515,-0.58938 -0.0086,0.01107 -0.07565,0.08289 -0.06998,0.115612 0.0019,0.0107 0.01879,0.01113 0.02897,0.01489 0.132417,0.049 0.239137,0.03669 0.377308,0.01756 0.164525,0.0022 0.527313,-0.262245 0.666509,-0.16491 0.02931,0.02049 0.04578,0.05495 0.06867,0.08242 0.144137,0.217179 0.28555,0.134773 0.494512,0.0482 -2.750061,1.513473 -0.631852,0.568245 -0.770788,0.239627 -0.02951,-0.04772 -0.0409,0.05586 -0.07597,0.02044 -0.07138,-0.0721 -0.06064,-0.145292 -0.03727,-0.230967 0.03503,-0.123984 0.15044,-0.289452 0.08006,-0.417491 -0.07835,-0.01195 -0.203676,0.148074 -0.26725,0.06072 -0.02502,-0.03438 -0.0351,-0.07745 -0.05264,-0.116177 -0.02468,-0.202948 0.154082,-0.563783 0.02065,-0.729668 -0.178275,0.444862 -0.01113,-0.01514 1.02357,-0.496719 0.05179,-0.02411 -0.07834,0.08349 -0.112635,0.129174 -0.125238,0.166845 -0.22587,0.355229 -0.328356,0.536323 -0.116753,-0.157077 -0.03135,0.225481 -0.09398,0.191684 -0.0321,-0.01732 -0.01091,-0.114367 -0.04444,-0.1 -1.50848,0.64642 -1.197048,0.979221 -1.05678,0.416338 0.0014,-0.01725 -0.0052,-0.03727 0.0043,-0.05176 0.02844,-0.04343 -0.02271,0.131019 -0.0082,0.123863 0.35861,-0.176802 0.690121,-0.404434 1.043444,-0.591577 0.06865,-0.03636 -0.110815,0.10892 -0.166144,0.163459 -0.401928,0.22202 -0.789128,0.473091 -1.205783,0.666061 -0.03496,0.01619 -0.0687,-0.03665 -0.09717,-0.06261 -0.07952,-0.0725 -0.11812,-0.201719 -0.211163,-0.259853 -0.0261,-0.01631 -0.05917,-0.01696 -0.08876,-0.02545 -0.04518,0.01469 -0.09148,0.02631 -0.135553,0.04406 -0.147204,0.05926 -0.556927,0.304509 -0.41807,0.227698 0.291767,-0.161395 1.162845,-0.652956 0.868695,-0.495944 -1.477183,0.788495 -0.814393,0.622462 -1.488601,0.774075 -0.04328,-0.0034 -0.08667,-0.0057 -0.129835,-0.01029 -0.03593,-0.0038 -0.07123,-0.01526 -0.107366,-0.01505 -0.08058,4.7e-4 -0.170431,0.06098 -0.251915,0.03737 -0.02607,-0.0075 -0.04537,-0.02978 -0.06806,-0.04467 -0.01881,-0.01314 -0.03417,-0.03384 -0.05642,-0.03942 -0.05529,-0.01387 -0.135803,0.05578 -0.16557,0.07449 0.3199,-0.179875 0.635583,-0.367466 0.959701,-0.539627 0.06453,-0.03427 -0.120976,0.08203 -0.179795,0.125366 -0.05805,0.04277 -0.113797,0.08859 -0.170695,0.132888 -0.454765,0.363987 -0.463423,0.382075 -1.355084,0.810827 -0.0809,0.0389 -0.152678,-0.191578 -0.154759,-0.201005 -0.01396,-0.06324 0.0012,-0.183412 0.007,-0.248713 0.007,0.01716 0.0078,-0.106573 -0.02771,-0.103335 -0.02013,0.0018 -0.03292,0.02367 -0.05076,0.03316 -0.02841,0.01511 -0.05849,0.02684 -0.08764,0.04046 -0.178462,0.08338 -0.05274,0.02702 -0.241941,0.109661 -0.3223288,0.12509 -0.3664209,-0.162546 -0.3719652,-0.40863 -0.00151,-0.02864 -9.022e-4,-0.05747 -0.00454,-0.08592 -0.00194,-0.01514 0.00276,-0.04065 -0.012094,-0.04416 -0.013064,-0.0031 -0.00699,0.02596 -0.011592,0.03857 -0.00694,0.019 -0.040937,0.06551 -0.022995,0.05617 0.9553072,-0.497602 1.3802622,-0.870008 0.9748982,-0.52377 -0.517818,0.551445 -0.9611602,0.706728 -1.709892,1.123037 -0.044414,0.022 -0.095019,0.01134 -0.1410435,0.02379 -0.018988,0.0051 -0.03374,0.02424 -0.053389,0.02514 -0.095809,0.0044 -0.1339024,-0.118063 -0.1621213,-0.183898 -0.05314,-0.227339 -0.016222,-0.465872 -0.115671,-0.681207 -0.00915,-0.01061 -0.058546,-0.08216 -0.090759,-0.07525 -0.01656,0.0036 -0.048228,0.04628 -0.033205,0.03846 0.3623243,-0.188643 0.7129253,-0.399602 1.0781734,-0.58252 0.033322,-0.01669 -0.054719,0.05119 -0.076954,0.0811 -0.0268,0.03605 -0.046184,0.07706 -0.069275,0.115589 -0.2672535,0.632369 -0.1171328,0.427275 -1.3385929,0.851962 -0.015485,0.0054 -0.075313,-0.13652 -0.1190086,-0.234983 -0.1102305,-0.252831 -0.1843048,-0.517668 -0.2286782,-0.789322 -0.00429,-0.03574 -0.00922,-0.07141 -0.012875,-0.107215 -0.00219,-0.02146 -0.010018,-0.130586 -0.014833,-0.164493 -0.00223,-0.01571 -0.02331,-0.03944 -0.0092,-0.04669 1.2233911,-0.629207 1.0802873,-0.985095 1.2321128,-0.440685 0.1022672,0.3841 0.1359802,0.779952 0.1866527,1.172598 0.058859,0.271527 0.091299,0.558226 0.2355382,0.800508 0.1186434,0.222742 0.2505524,0.263785 0.4882354,0.305662 0.367144,0.06136 0.731127,0.01628 1.095705,-0.03445 0.249184,-0.03154 0.491587,-0.127875 0.744551,-0.131333 0.07772,-0.0011 0.20051,0.01772 0.27786,0.02785 0.271116,0.03969 0.548304,0.01331 0.821396,0.0051 0.248195,-0.02568 0.492182,0.02264 0.738228,0.0462 0.21112,0.02714 0.413709,-0.03238 0.598935,-0.131443 0.05685,-0.03041 0.222798,-0.129871 0.166612,-0.09825 -0.3186,0.179325 -0.635923,0.36091 -0.953884,0.541364 0.499853,-0.275184 1.237109,-1.133278 1.693077,-0.765685 0.03091,0.02492 0.05483,0.05743 0.08225,0.08615 0.114129,0.111924 0.191619,0.341531 0.364887,0.38172 0.02612,0.0061 0.05362,9.2e-5 0.08044,1.37e-4 0.204246,-0.07233 0.381385,-0.213985 0.605124,-0.177071 0.09003,0.02468 0.180883,0.07133 0.269805,0.01769 0.01896,-0.01143 0.07162,-0.05171 0.05223,-0.04103 -0.354353,0.195202 -0.705224,0.396657 -1.057836,0.594985 0.184397,-0.249572 0.324166,-0.533615 0.465177,-0.809995 0.07037,-0.162075 0.145494,-0.322003 0.212803,-0.485375 0,0 1.190235,-0.551236 1.190235,-0.551236 l 0,0 c -0.0641,0.170115 -0.149684,0.32946 -0.215917,0.498709 -0.136549,0.286687 -0.303091,0.558189 -0.438162,0.845622 -0.39627,0.241597 -0.788283,0.49032 -1.18881,0.724793 -0.03309,0.01937 -0.111547,0.01493 -0.146663,0.01061 -0.07032,-0.0086 -0.137617,-0.03609 -0.209355,-0.03402 -0.211292,0.03375 -0.393498,0.186202 -0.616553,0.157008 -0.246187,-0.08751 -0.325449,-0.251989 -0.485146,-0.443161 -0.04577,-0.03667 -0.06063,-0.06286 -0.122563,-0.06195 -0.02645,3.88e-4 -0.100157,0.03019 -0.07766,0.01629 1.85746,-1.1473 1.158485,-0.683616 0.755222,-0.436725 -0.423904,0.249001 -0.845782,0.501484 -1.271712,0.747004 -0.251487,0.144964 -0.530916,0.212279 -0.819784,0.173105 -0.241807,-0.02524 -0.482601,-0.05637 -0.726382,-0.03374 -0.277451,0.0085 -0.557203,0.02531 -0.832665,-0.01853 -0.339177,-0.02563 -0.662476,0.06741 -0.9954177,0.121913 C 9.3610007,21.4857 8.982023,21.51652 8.6063884,21.44174 8.3473392,21.37599 8.1847808,21.289157 8.0571566,21.045867 7.9077527,20.78399 7.8648241,20.4866 7.8072029,20.193929 c -0.049952,-0.38546 -0.075088,-0.776544 -0.1887108,-1.150733 -0.1391619,-0.513831 -0.043872,-0.04896 1.1253055,-0.732661 0.00827,-0.0048 -0.021913,-0.02113 -0.02592,-0.01243 -0.009,0.01955 9.269e-4,0.04303 0.00193,0.06453 0.00152,0.03258 0.00321,0.06516 0.00566,0.09769 0.00258,0.0343 0.00629,0.06851 0.00944,0.102762 0.035169,0.261617 0.099382,0.517814 0.2098735,0.758692 0.016438,0.03612 0.030617,0.07336 0.049314,0.108365 0.013059,0.02445 0.068894,0.05434 0.045677,0.06949 -0.3600698,0.234836 -0.7535356,0.414284 -1.1233873,0.633391 -0.016862,0.01 0.045105,0.01141 0.058736,-0.0027 0.060775,-0.06279 0.0354,-0.183458 0.094674,-0.244459 0.00663,-0.0152 0.092123,-0.223847 0.1192957,-0.240977 0.5466764,-0.344647 1.0242052,-1.050641 1.4080395,-0.520453 0.1007008,0.219245 0.094337,0.450676 0.1225141,0.686293 0.00397,0.01318 0.00449,0.02795 0.011924,0.03953 0.00851,0.01325 0.026729,-0.01748 0.041827,-0.02195 0.062321,-0.01845 0.1302786,-0.02065 0.1892688,-0.0516 -1.9659003,1.146388 -0.9374616,0.638379 -0.539517,0.185792 0.3865623,-0.408719 0.1638573,-0.188407 1.2759841,-0.788522 0.04848,-0.02616 0.137634,0.06439 0.152709,0.08622 0.02919,0.04228 0.02643,0.122157 0.02921,0.167215 -0.0064,0.236537 -0.03382,0.308471 0.229763,0.19372 0.224356,-0.09116 0.524562,-0.213871 0.555767,0.146978 -0.0077,0.06693 -0.03806,0.228044 -0.03181,0.23166 0.0098,0.0056 0.03892,-0.02279 0.02922,-0.01704 -1.065452,0.631717 -1.320635,0.843587 -0.873686,0.49017 0.592495,-0.473358 0.643107,-0.489134 1.628854,-1.004631 0.04332,-0.02266 0.09659,-0.02191 0.145403,-0.01924 0.03535,0.0019 0.102513,0.03662 0.139882,0.05468 0.16588,-0.02294 0.328784,-0.01648 0.49466,-0.02938 0.05013,-0.01697 0.194806,-0.07971 0.150405,-0.0509 -0.292913,0.190049 -1.204536,0.706699 -0.899442,0.536892 0.451548,-0.25132 0.890898,-0.523989 1.338941,-0.781505 0.137079,-0.07879 0.300314,-0.170537 0.461764,-0.193835 0.05973,-0.0086 0.120506,0.0067 0.18076,0.01003 0.14367,0.08457 0.150728,0.114113 0.252779,0.232706 0.014,0.01627 0.02704,0.03601 0.04691,0.04412 0.01504,0.0061 0.06228,-0.01379 0.04845,-0.0053 -0.34785,0.214582 -0.702935,0.417207 -1.054403,0.62581 0.0296,-0.02074 0.06277,-0.03716 0.08881,-0.06223 0.03006,-0.02894 0.0427,-0.07545 0.07773,-0.09812 0.392821,-0.254182 0.788494,-0.505477 1.19979,-0.728528 0.05904,-0.03202 0.141492,0.07189 0.155551,0.105401 0.0098,0.02329 0.0017,0.05048 0.0026,0.07572 -0.0019,0.01198 -0.02951,0.19962 -0.04185,0.208012 -0.214721,0.146016 -1.60383,1.231576 -1.130879,0.386925 0.307333,-0.559338 0.93668,-1.771107 1.740616,-1.362248 0.017,0.02981 0.04059,0.05673 0.051,0.08943 0.0685,0.215018 -0.01329,0.463743 -0.04688,0.677428 -0.123987,-0.08929 0.292414,-0.08157 0.301585,0.02593 0.09241,0.17361 0.04093,0.34282 -0.02917,0.517699 -0.01197,0.02276 -0.02812,0.07311 -0.04966,0.05906 -0.01546,-0.01008 -0.03627,-0.02526 -0.03416,-0.04359 0.0069,-0.05979 0.148499,0.10891 0.149754,0.102128 0.07319,0.153982 0.05179,0.266715 -0.05977,0.399732 -0.03028,0.0361 -0.05851,0.07673 -0.0989,0.100996 -0.41069,0.246803 -0.833362,0.473097 -1.250042,0.709646 -0.259266,0.06621 -0.419577,0.06137 -0.58653,-0.162603 -0.113807,-0.03011 -0.527244,0.220379 -0.660805,0.168024 -0.0598,-4.13e-4 -0.120025,0.0059 -0.179404,-0.0012 -0.227254,-0.0272 -0.446494,-0.167589 -0.317796,-0.414172 0.396132,-0.246907 0.788254,-0.500368 1.188396,-0.740723 0.02884,-0.01732 0.06269,-0.02686 0.09609,-0.03083 0.168856,-0.02007 0.276455,0.101694 0.303786,0.255893 -0.01055,0.0395 -0.01259,0.08233 -0.03166,0.118499 -0.02369,0.04495 -0.05106,0.09286 -0.09403,0.119974 -0.413156,0.260759 -0.839702,0.499903 -1.266074,0.738439 -0.176603,0.0988 -0.376976,0.122622 -0.573682,0.09063 -0.05594,-0.02125 -0.115925,-0.03395 -0.167817,-0.06375 -0.238128,-0.136739 -0.238395,-0.418248 -0.12363,-0.634793 0.02225,-0.04063 0.02753,-0.09724 0.06675,-0.121877 0.395957,-0.248748 0.805091,-0.477273 1.222499,-0.688053 0.100901,-0.05095 0.227,0.115957 0.25068,0.187056 0.01291,0.03876 0.01321,0.08064 0.01981,0.120952 -0.02813,0.129258 -0.02542,0.160274 -0.09512,0.282318 -0.03151,0.05518 -0.172324,0.248848 -0.227,0.282449 -1.175722,0.722521 -0.81088,0.635271 -1.436164,0.753867 -0.05143,-0.0048 -0.104279,-0.0016 -0.154284,-0.01453 -0.232557,-0.06024 -0.310746,-0.290874 -0.208854,-0.492455 0.340678,-0.498486 0.07005,-0.135294 1.292427,-0.850934 0.165835,-0.09709 0.340936,-0.04456 0.459837,0.09281 0.0183,0.04 0.04438,0.07728 0.05489,0.11999 0.03118,0.126704 -0.01752,0.330933 -0.135119,0.405611 -1.096351,0.696198 -0.840124,0.599195 -1.476113,0.799946 -0.07866,0.0076 -0.156966,0.02363 -0.23599,0.02277 -0.412643,-0.0045 -0.75772,-0.22366 -0.946876,-0.58605 -0.05029,-0.174541 -0.07545,-0.181667 -0.04369,-0.356126 0.102975,-0.565634 0.954826,-1.120123 1.444861,-0.780868 0.573423,0.724307 -0.465077,1.107241 -1.18516,1.349137 -0.478481,0.05162 -0.872926,-0.09453 -1.2584658,-0.376613 -0.051785,-0.05458 -0.1114571,-0.102641 -0.1553563,-0.163746 -0.1883308,-0.262144 -0.12883,-0.515969 0.055246,-0.751131 0.5058981,-0.299412 1.1383361,-0.861788 1.8141261,-0.856692 0.189316,0.0014 0.273054,0.02974 0.458288,0.06973 0.284778,0.109069 0.590262,0.249003 0.558343,0.615136 -0.0049,0.05671 -0.02628,0.110782 -0.03942,0.166173 -0.07223,0.125156 -0.104845,0.195314 -0.202037,0.306072 -0.447275,0.509709 -1.119773,0.841142 -1.778513,0.980585 -0.313869,0.01286 -0.6303152,-0.01532 -0.8593058,-0.255496 -0.1904936,-0.255422 -0.2120291,-0.467682 -0.099746,-0.766013 0.4193641,-0.624352 1.1877358,-0.864565 1.8864448,-0.858894 0,0 -1.061579,0.771281 -1.061579,0.771281 z"
           inkscape:connector-curvature="0"
           transform="matrix(0.84934587,0,0,1.1642923,-0.00205685,1133.5237)" />
      </g>
    </g>
  </g>
</svg>
