<?xml version="1.0" encoding="UTF-8" standalone="no"?>
<!-- Created with Inkscape (http://www.inkscape.org/) -->

<svg
   xmlns:dc="http://purl.org/dc/elements/1.1/"
   xmlns:cc="http://creativecommons.org/ns#"
   xmlns:rdf="http://www.w3.org/1999/02/22-rdf-syntax-ns#"
   xmlns:svg="http://www.w3.org/2000/svg"
   xmlns="http://www.w3.org/2000/svg"
   xmlns:xlink="http://www.w3.org/1999/xlink"
   xmlns:sodipodi="http://sodipodi.sourceforge.net/DTD/sodipodi-0.dtd"
   xmlns:inkscape="http://www.inkscape.org/namespaces/inkscape"
   width="25"
   height="25"
   id="svg2"
   version="1.1"
   inkscape:version="0.48.4 r9939"
   sodipodi:docname="Neues Dokument 1">
  <defs
     id="defs4">
    <linearGradient
       id="linearGradient3755">
      <stop
         style="stop-color:#ff0000;stop-opacity:1;"
         offset="0"
         id="stop3757" />
      <stop
         style="stop-color:#ad0808;stop-opacity:1;"
         offset="1"
         id="stop3759" />
    </linearGradient>
    <radialGradient
       inkscape:collect="always"
       xlink:href="#linearGradient3755"
       id="radialGradient3761"
       cx="13.973215"
       cy="19.910715"
       fx="13.973215"
       fy="19.910715"
       r="11.553572"
       gradientUnits="userSpaceOnUse"
       gradientTransform="matrix(0.31282983,-0.17046539,0.22713618,0.41682934,4.1573844,1.1375644)" />
    <radialGradient
       inkscape:collect="always"
       xlink:href="#linearGradient3755"
       id="radialGradient3776"
       gradientUnits="userSpaceOnUse"
       gradientTransform="matrix(0.31282983,-0.17046539,0.22713618,0.41682934,4.1573844,1.1375644)"
       cx="13.973215"
       cy="19.910715"
       fx="13.973215"
       fy="19.910715"
       r="11.553572" />
    <radialGradient
       inkscape:collect="always"
       xlink:href="#linearGradient3755"
       id="radialGradient3779"
       gradientUnits="userSpaceOnUse"
       gradientTransform="matrix(0.22994427,-0.14627183,0.45119285,0.70929037,-0.7363873,1020.5916)"
       cx="11.484406"
       cy="26.090132"
       fx="11.484406"
       fy="26.090132"
       r="11.553572" />
    <radialGradient
       inkscape:collect="always"
       xlink:href="#linearGradient3755"
       id="radialGradient3792"
       gradientUnits="userSpaceOnUse"
       gradientTransform="matrix(0.22994427,-0.14627183,0.45119285,0.70929037,-0.7363873,1020.5916)"
       cx="11.484406"
       cy="26.090132"
       fx="11.484406"
       fy="26.090132"
       r="11.553572" />
  </defs>
  <sodipodi:namedview
     id="base"
     pagecolor="#ffffff"
     bordercolor="#666666"
     borderopacity="1.0"
     inkscape:pageopacity="0.0"
     inkscape:pageshadow="2"
     inkscape:zoom="1"
     inkscape:cx="11.325181"
     inkscape:cy="1.5228531"
     inkscape:document-units="px"
     inkscape:current-layer="layer1"
     showgrid="false"
     inkscape:showpageshadow="false"
     inkscape:window-width="2560"
     inkscape:window-height="1378"
     inkscape:window-x="-8"
     inkscape:window-y="-8"
     inkscape:window-maximized="1" />
  <metadata
     id="metadata7">
    <rdf:RDF>
      <cc:Work
         rdf:about="">
        <dc:format>image/svg+xml</dc:format>
        <dc:type
           rdf:resource="http://purl.org/dc/dcmitype/StillImage" />
        <dc:title></dc:title>
      </cc:Work>
    </rdf:RDF>
  </metadata>
  <g
     inkscape:label="Ebene 1"
     inkscape:groupmode="layer"
     id="layer1"
     transform="translate(0,-1027.3622)">
    <g
       id="g3787"
       transform="matrix(0.88909712,0,0,0.88909712,0.82082511,113.38909)">
      <path
         sodipodi:nodetypes="ccccccccc"
         inkscape:connector-curvature="0"
         id="path2985"
         d="m 12.8125,1028.331 c -1.808339,-0.038 -3.4993926,1.377 -3.7838053,3.1626 -0.2138793,1.1904 0.1504362,2.5168 1.0403073,3.35 1.454641,0.9469 2.115266,2.6707 2.456657,4.3008 0.184822,0.7554 0.213523,1.548 0.46309,2.2859 0.436748,0.3453 0.455641,-0.704 0.521567,-0.9891 0.228708,-1.7493 0.425939,-3.6374 1.552247,-5.0746 1.105221,-1.0426 1.842227,-2.8135 1.472851,-4.1535 -0.405585,-1.666 -2.006806,-2.9086 -3.722914,-2.8821 z"
         style="fill:url(#radialGradient3792);fill-opacity:1;stroke:#000000;stroke-width:0.667;stroke-miterlimit:4;stroke-opacity:1;stroke-dasharray:none" />
      <path
         transform="matrix(0.52696745,0,0,0.52696745,6.6959138,1025.4464)"
         d="m 13.75,12.767858 c 0,1.183467 -0.95939,2.142857 -2.142858,2.142857 -1.183467,0 -2.1428566,-0.95939 -2.1428566,-2.142857 0,-1.183468 0.9593896,-2.142858 2.1428566,-2.142858 1.183468,0 2.142858,0.95939 2.142858,2.142858 z"
         sodipodi:ry="2.1428571"
         sodipodi:rx="2.1428571"
         sodipodi:cy="12.767858"
         sodipodi:cx="11.607142"
         id="path3763"
         style="fill:#000000;fill-opacity:1;stroke:none"
         sodipodi:type="arc" />
      <path
         style="fill:#000000;fill-opacity:0.09230772;stroke:none"
         d="m 7.7903629,1047.4845 c -1.8745651,0.016 -3.0865208,-0.5954 -2.7121762,-1.3676 0.2245887,-0.5148 1.0949181,-1.0884 2.3217929,-1.4487 1.8505093,-0.4095 3.1741304,-1.1549 4.1342834,-1.8598 0.472371,-0.3267 0.798002,-0.6695 1.330429,-0.9886 0.578365,-0.1493 0.205829,0.3045 0.167164,0.4278 -0.418016,0.7564 -0.920334,1.5729 -0.298215,2.1944 0.747779,0.4509 0.844672,1.2167 -0.03596,1.7962 -1.039596,0.7204 -3.1514091,1.2578 -4.9073181,1.2463 z"
         id="path3781"
         inkscape:connector-curvature="0"
         sodipodi:nodetypes="ccccccccc" />
    </g>
  </g>
</svg>
