<?xml version="1.0" encoding="UTF-8" standalone="no"?>
<!-- Created with Inkscape (http://www.inkscape.org/) -->

<svg
   xmlns:dc="http://purl.org/dc/elements/1.1/"
   xmlns:cc="http://creativecommons.org/ns#"
   xmlns:rdf="http://www.w3.org/1999/02/22-rdf-syntax-ns#"
   xmlns:svg="http://www.w3.org/2000/svg"
   xmlns="http://www.w3.org/2000/svg"
   xmlns:sodipodi="http://sodipodi.sourceforge.net/DTD/sodipodi-0.dtd"
   xmlns:inkscape="http://www.inkscape.org/namespaces/inkscape"
   width="170"
   height="80"
   id="svg2"
   version="1.1"
   inkscape:version="0.48.4 r9939"
   sodipodi:docname="catalogue.svg">
  <defs
     id="defs4">
    <filter
       id="filter3852"
       style="color-interpolation-filters:sRGB;"
       inkscape:label="Drop Shadow">
      <feFlood
         id="feFlood3854"
         flood-opacity="0.25"
         flood-color="rgb(0,0,0)"
         result="flood" />
      <feComposite
         id="feComposite3856"
         in2="SourceGraphic"
         in="flood"
         operator="in"
         result="composite1" />
      <feGaussianBlur
         id="feGaussianBlur3858"
         in="composite"
         stdDeviation="2.5"
         result="blur" />
      <feOffset
         id="feOffset3860"
         dx="2"
         dy="2"
         result="offset" />
      <feComposite
         id="feComposite3862"
         in2="offset"
         in="SourceGraphic"
         operator="over"
         result="composite2" />
    </filter>
  </defs>
  <sodipodi:namedview
     id="base"
     pagecolor="#ffffff"
     bordercolor="#666666"
     borderopacity="1.0"
     inkscape:pageopacity="1"
     inkscape:pageshadow="2"
     inkscape:zoom="0.99999999"
     inkscape:cx="47.133894"
     inkscape:cy="-104.78562"
     inkscape:document-units="px"
     inkscape:current-layer="layer1"
     showgrid="false"
     borderlayer="true"
     inkscape:showpageshadow="false"
     inkscape:window-width="1768"
     inkscape:window-height="976"
     inkscape:window-x="476"
     inkscape:window-y="135"
     inkscape:window-maximized="0"
     showguides="true"
     inkscape:guide-bbox="true" />
  <metadata
     id="metadata7">
    <rdf:RDF>
      <cc:Work
         rdf:about="">
        <dc:format>image/svg+xml</dc:format>
        <dc:type
           rdf:resource="http://purl.org/dc/dcmitype/StillImage" />
        <dc:title />
      </cc:Work>
    </rdf:RDF>
  </metadata>
  <g
     inkscape:label="Ebene 1"
     inkscape:groupmode="layer"
     id="layer1"
     transform="translate(0,-972.36218)">
    <g
       id="g3763"
       transform="translate(-4.065864,6.5221282)"
       style="filter:url(#filter3852)">
      <path
         style="fill:#000000;stroke:#000000;stroke-width:0.78378379px;stroke-linecap:butt;stroke-linejoin:miter;stroke-opacity:1"
         d="m 34.641892,1040.7603 5.045608,-36.152 5.045608,36.152"
         id="path3024"
         inkscape:connector-curvature="0"
         sodipodi:nodetypes="ccc" />
      <path
         sodipodi:type="arc"
         style="color:#000000;fill:#000000;stroke:#000000;stroke-width:1.20000005;stroke-linecap:round;stroke-linejoin:miter;stroke-miterlimit:4;stroke-opacity:1;stroke-dasharray:none;stroke-dashoffset:0;marker:none;visibility:visible;display:inline;overflow:visible;enable-background:accumulate"
         id="path3026"
         sodipodi:cx="31.8125"
         sodipodi:cy="12.562499"
         sodipodi:rx="6.1875"
         sodipodi:ry="6.1875"
         d="m 38,12.562499 c 0,3.417262 -2.770238,6.1875 -6.1875,6.1875 -3.417262,0 -6.1875,-2.770238 -6.1875,-6.1875 0,-3.4172618 2.770238,-6.1875 6.1875,-6.1875 3.417262,0 6.1875,2.7702382 6.1875,6.1875 z"
         transform="matrix(0.78378378,0,0,0.78378378,14.753379,986.97318)" />
      <path
         style="font-size:medium;font-style:normal;font-variant:normal;font-weight:normal;font-stretch:normal;text-indent:0;text-align:start;text-decoration:none;line-height:normal;letter-spacing:normal;word-spacing:normal;text-transform:none;direction:ltr;block-progression:tb;writing-mode:lr-tb;text-anchor:start;baseline-shift:baseline;color:#000000;fill:#87aade;fill-opacity:1;stroke:none;stroke-width:1.20000005;marker:none;visibility:visible;display:inline;overflow:visible;enable-background:accumulate;font-family:Sans;-inkscape-font-specification:Sans"
         d="m 25.8125,972.08974 c -8.665056,4.88531 -14.53125,14.1721 -14.53125,24.81246 0,10.6654 5.895224,19.9677 14.59375,24.8438 l 1.28125,-3.7813 c -7.154078,-4.2839 -11.9375,-12.1115 -11.9375,-21.0625 0,-8.93577 4.772346,-16.74251 11.90625,-21.03121 l -1.3125,-3.78125 z m 27.96875,0.0312 -1.34375,3.8125 c 7.093596,4.29798 11.84375,12.06333 11.84375,20.96871 0,8.92055 -4.761257,16.70665 -11.875,20.99995 l 1.3125,3.7813 c 8.644578,-4.8909 14.5,-14.1561 14.5,-24.78125 0,-10.60575 -5.818845,-19.88325 -14.4375,-24.78121 z m -25.84375,6.125 c -6.168396,3.92238 -10.28125,10.8168 -10.28125,18.65621 0,7.85465 4.1241,14.76905 10.3125,18.68745 L 29,1012.621 c -5.009476,-3.4259 -8.28125,-9.1837 -8.28125,-15.7188 0,-6.51927 3.260842,-12.2586 8.25,-15.68746 l -1.03125,-2.96875 z m 23.6875,0.0312 -1.03125,3 c 4.948588,3.43454 8.1875,9.13709 8.1875,15.62496 0,6.5193 -3.260842,12.2587 -8.25,15.6875 l 1.0625,2.9688 c 6.156318,-3.9247 10.25,-10.826 10.25,-18.6563 0,-7.81501 -4.08241,-14.69635 -10.21875,-18.62496 z m -21.90625,5.125 c -4.12366,3.07231 -6.8125,7.97058 -6.8125,13.49996 0,5.545 2.700317,10.4607 6.84375,13.5313 l 0.8125,-2.3125 c -3.240906,-2.657 -5.3125,-6.6908 -5.3125,-11.2188 0,-4.49612 2.048292,-8.49872 5.25,-11.15621 l -0.78125,-2.34375 z m 20.125,0.0312 -0.8125,2.34375 c 3.18218,2.65762 5.21875,6.64472 5.21875,11.12496 0,4.51205 -2.059978,8.53025 -5.28125,11.18745 l 0.8125,2.3125 c 4.12366,-3.0723 6.8125,-7.9705 6.8125,-13.49995 0,-5.50487 -2.657435,-10.3938 -6.75,-13.46871 z m -18.625,4.40625 c -2.415691,2.27489 -3.9375,5.48731 -3.9375,9.06246 0,3.60695 1.5466,6.84695 4,9.12495 l 0.625,-1.8125 C 30.117403,1002.2948 29,999.73415 29,996.90205 c 0,-2.79983 1.090925,-5.33733 2.84375,-7.24996 l -0.625,-1.8125 z m 17.09375,0 -0.625,1.84375 c 1.734911,1.9089 2.8125,4.43498 2.8125,7.21871 0,2.816 -1.104196,5.36495 -2.875,7.28125 l 0.625,1.8125 c 2.434522,-2.2765 3.96875,-5.5027 3.96875,-9.09375 0,-3.56691 -1.500304,-6.78844 -3.90625,-9.06246 z m -15.65625,4.1875 c -0.950733,1.38276 -1.5,3.07188 -1.5,4.87496 0,1.8346 0.58123,3.54105 1.5625,4.93745 l 0.5,-1.4687 c -0.549433,-1.03505 -0.875,-2.21395 -0.875,-3.46875 0,-1.2202 0.322242,-2.36061 0.84375,-3.37496 l -0.53125,-1.5 z m 14.1875,0.0312 -0.5,1.5 c 0.509837,1.00539 0.8125,2.13811 0.8125,3.34371 0,1.2548 -0.325567,2.4337 -0.875,3.4688 l 0.5,1.4375 c 0.972565,-1.3926 1.5625,-3.0806 1.5625,-4.9063 0,-1.79415 -0.557863,-3.46493 -1.5,-4.84371 z"
         id="path3028"
         inkscape:connector-curvature="0" />
    </g>
    <text
       sodipodi:linespacing="125%"
       id="text3096"
       y="1014.835"
       x="160.61453"
       style="font-size:24px;font-style:normal;font-weight:normal;text-align:end;line-height:125%;letter-spacing:0px;word-spacing:0px;text-anchor:end;fill:#000000;fill-opacity:1;stroke:none;font-family:Sans"
       xml:space="preserve"><tspan
         id="tspan3098"
         y="1014.835"
         x="160.61453"
         sodipodi:role="line">PubSub</tspan><tspan
         y="1044.835"
         x="160.61453"
         sodipodi:role="line"
         id="tspan3100">Receiver</tspan></text>
  </g>
</svg>
