<?xml version="1.0" encoding="UTF-8" standalone="no"?>
<!-- Created with Inkscape (http://www.inkscape.org/) -->

<svg
   xmlns:dc="http://purl.org/dc/elements/1.1/"
   xmlns:cc="http://creativecommons.org/ns#"
   xmlns:rdf="http://www.w3.org/1999/02/22-rdf-syntax-ns#"
   xmlns:svg="http://www.w3.org/2000/svg"
   xmlns="http://www.w3.org/2000/svg"
   xmlns:xlink="http://www.w3.org/1999/xlink"
   xmlns:sodipodi="http://sodipodi.sourceforge.net/DTD/sodipodi-0.dtd"
   xmlns:inkscape="http://www.inkscape.org/namespaces/inkscape"
   width="170"
   height="80"
   id="svg2"
   version="1.1"
   inkscape:version="0.48.4 r9939"
   sodipodi:docname="catalogue.svg"
   inkscape:export-xdpi="90"
   inkscape:export-ydpi="90">
  <defs
     id="defs4">
    <marker
       inkscape:stockid="DotS"
       orient="auto"
       refY="0.0"
       refX="0.0"
       id="DotS"
       style="overflow:visible">
      <path
         id="path4019"
         d="M -2.5,-1.0 C -2.5,1.7600000 -4.7400000,4.0 -7.5,4.0 C -10.260000,4.0 -12.5,1.7600000 -12.5,-1.0 C -12.5,-3.7600000 -10.260000,-6.0 -7.5,-6.0 C -4.7400000,-6.0 -2.5,-3.7600000 -2.5,-1.0 z "
         style="fill-rule:evenodd;stroke:#000000;stroke-width:1.0pt"
         transform="scale(0.2) translate(7.4, 1)" />
    </marker>
    <marker
       inkscape:stockid="DotL"
       orient="auto"
       refY="0.0"
       refX="0.0"
       id="DotL"
       style="overflow:visible">
      <path
         id="path4013"
         d="M -2.5,-1.0 C -2.5,1.7600000 -4.7400000,4.0 -7.5,4.0 C -10.260000,4.0 -12.5,1.7600000 -12.5,-1.0 C -12.5,-3.7600000 -10.260000,-6.0 -7.5,-6.0 C -4.7400000,-6.0 -2.5,-3.7600000 -2.5,-1.0 z "
         style="fill-rule:evenodd;stroke:#000000;stroke-width:1.0pt"
         transform="scale(0.8) translate(7.4, 1)" />
    </marker>
    <marker
       inkscape:stockid="Arrow2Mend"
       orient="auto"
       refY="0.0"
       refX="0.0"
       id="Arrow2Mend"
       style="overflow:visible;">
      <path
         id="path3979"
         style="fill-rule:evenodd;stroke-width:0.62500000;stroke-linejoin:round;"
         d="M 8.7185878,4.0337352 L -2.2072895,0.016013256 L 8.7185884,-4.0017078 C 6.9730900,-1.6296469 6.9831476,1.6157441 8.7185878,4.0337352 z "
         transform="scale(0.6) rotate(180) translate(0,0)" />
    </marker>
    <marker
       inkscape:stockid="Arrow2Lend"
       orient="auto"
       refY="0.0"
       refX="0.0"
       id="Arrow2Lend"
       style="overflow:visible;">
      <path
         id="path3973"
         style="fill-rule:evenodd;stroke-width:0.62500000;stroke-linejoin:round;"
         d="M 8.7185878,4.0337352 L -2.2072895,0.016013256 L 8.7185884,-4.0017078 C 6.9730900,-1.6296469 6.9831476,1.6157441 8.7185878,4.0337352 z "
         transform="scale(1.1) rotate(180) translate(1,0)" />
    </marker>
    <marker
       inkscape:stockid="Arrow2Mstart"
       orient="auto"
       refY="0.0"
       refX="0.0"
       id="Arrow2Mstart"
       style="overflow:visible">
      <path
         id="path3976"
         style="fill-rule:evenodd;stroke-width:0.62500000;stroke-linejoin:round"
         d="M 8.7185878,4.0337352 L -2.2072895,0.016013256 L 8.7185884,-4.0017078 C 6.9730900,-1.6296469 6.9831476,1.6157441 8.7185878,4.0337352 z "
         transform="scale(0.6) translate(0,0)" />
    </marker>
    <marker
       inkscape:stockid="Arrow2Sstart"
       orient="auto"
       refY="0.0"
       refX="0.0"
       id="Arrow2Sstart"
       style="overflow:visible">
      <path
         id="path3982"
         style="fill-rule:evenodd;stroke-width:0.62500000;stroke-linejoin:round"
         d="M 8.7185878,4.0337352 L -2.2072895,0.016013256 L 8.7185884,-4.0017078 C 6.9730900,-1.6296469 6.9831476,1.6157441 8.7185878,4.0337352 z "
         transform="scale(0.3) translate(-2.3,0)" />
    </marker>
    <marker
       inkscape:stockid="Arrow1Send"
       orient="auto"
       refY="0.0"
       refX="0.0"
       id="Arrow1Send"
       style="overflow:visible;">
      <path
         id="path3852"
         d="M 0.0,0.0 L 5.0,-5.0 L -12.5,0.0 L 5.0,5.0 L 0.0,0.0 z "
         style="fill-rule:evenodd;stroke:#000000;stroke-width:1.0pt;"
         transform="scale(0.2) rotate(180) translate(6,0)" />
    </marker>
    <marker
       inkscape:stockid="Arrow1Sstart"
       orient="auto"
       refY="0.0"
       refX="0.0"
       id="Arrow1Sstart"
       style="overflow:visible">
      <path
         id="path3849"
         d="M 0.0,0.0 L 5.0,-5.0 L -12.5,0.0 L 5.0,5.0 L 0.0,0.0 z "
         style="fill-rule:evenodd;stroke:#000000;stroke-width:1.0pt"
         transform="scale(0.2) translate(6,0)" />
    </marker>
    <marker
       inkscape:stockid="Arrow1Lstart"
       orient="auto"
       refY="0.0"
       refX="0.0"
       id="Arrow1Lstart"
       style="overflow:visible">
      <path
         id="path3837"
         d="M 0.0,0.0 L 5.0,-5.0 L -12.5,0.0 L 5.0,5.0 L 0.0,0.0 z "
         style="fill-rule:evenodd;stroke:#000000;stroke-width:1.0pt"
         transform="scale(0.8) translate(12.5,0)" />
    </marker>
    <linearGradient
       id="linearGradient3811">
      <stop
         style="stop-color:#000000;stop-opacity:0.37777779;"
         offset="0"
         id="stop3813" />
      <stop
         style="stop-color:#000000;stop-opacity:0;"
         offset="1"
         id="stop3815" />
    </linearGradient>
    <inkscape:path-effect
       effect="spiro"
       id="path-effect3793"
       is_visible="true" />
    <inkscape:path-effect
       effect="spiro"
       id="path-effect4125"
       is_visible="true" />
    <inkscape:path-effect
       effect="spiro"
       id="path-effect4121"
       is_visible="true" />
    <linearGradient
       id="linearGradient4107">
      <stop
         style="stop-color:#828282;stop-opacity:1;"
         offset="0"
         id="stop4109" />
      <stop
         style="stop-color:#333333;stop-opacity:1;"
         offset="1"
         id="stop4111" />
    </linearGradient>
    <linearGradient
       inkscape:collect="always"
       id="linearGradient4026">
      <stop
         style="stop-color:#808080;stop-opacity:1;"
         offset="0"
         id="stop4028" />
      <stop
         style="stop-color:#808080;stop-opacity:0;"
         offset="1"
         id="stop4030" />
    </linearGradient>
    <inkscape:path-effect
       effect="spiro"
       id="path-effect4024"
       is_visible="true" />
    <inkscape:path-effect
       is_visible="true"
       id="path-effect4020"
       effect="spiro" />
    <inkscape:path-effect
       effect="spiro"
       id="path-effect4016"
       is_visible="true" />
    <inkscape:path-effect
       effect="spiro"
       id="path-effect3896"
       is_visible="true" />
    <filter
       id="filter3852"
       style="color-interpolation-filters:sRGB;"
       inkscape:label="Drop Shadow">
      <feFlood
         id="feFlood3854"
         flood-opacity="0.25"
         flood-color="rgb(0,0,0)"
         result="flood" />
      <feComposite
         id="feComposite3856"
         in2="SourceGraphic"
         in="flood"
         operator="in"
         result="composite1" />
      <feGaussianBlur
         id="feGaussianBlur3858"
         in="composite"
         stdDeviation="2.5"
         result="blur" />
      <feOffset
         id="feOffset3860"
         dx="2"
         dy="2"
         result="offset" />
      <feComposite
         id="feComposite3862"
         in2="offset"
         in="SourceGraphic"
         operator="over"
         result="composite2" />
    </filter>
    <linearGradient
       inkscape:collect="always"
       xlink:href="#linearGradient4026"
       id="linearGradient4032"
       x1="46.515018"
       y1="977.7145"
       x2="49.607309"
       y2="977.7145"
       gradientUnits="userSpaceOnUse" />
    <linearGradient
       inkscape:collect="always"
       xlink:href="#linearGradient4026"
       id="linearGradient4034"
       x1="45.144999"
       y1="975.37221"
       x2="48.23729"
       y2="975.37221"
       gradientUnits="userSpaceOnUse" />
    <linearGradient
       inkscape:collect="always"
       xlink:href="#linearGradient4026"
       id="linearGradient4036"
       x1="45.984688"
       y1="976.34448"
       x2="49.076979"
       y2="976.34448"
       gradientUnits="userSpaceOnUse" />
    <radialGradient
       inkscape:collect="always"
       xlink:href="#linearGradient3811"
       id="radialGradient3817"
       cx="5.3958149"
       cy="16.501635"
       fx="5.3958149"
       fy="16.501635"
       r="16.793785"
       gradientUnits="userSpaceOnUse"
       gradientTransform="matrix(1.2232969,-0.17119428,0.13859442,0.99034922,-3.4919031,1.0829862)" />
    <linearGradient
       id="linearGradient3811-7">
      <stop
         style="stop-color:#000000;stop-opacity:0.37777779;"
         offset="0"
         id="stop3813-4" />
      <stop
         style="stop-color:#000000;stop-opacity:0;"
         offset="1"
         id="stop3815-0" />
    </linearGradient>
    <radialGradient
       inkscape:collect="always"
       xlink:href="#linearGradient3811-7"
       id="radialGradient3138"
       gradientUnits="userSpaceOnUse"
       gradientTransform="matrix(1.2232969,-0.17119428,0.13859442,0.99034922,-3.4919031,1.0829862)"
       cx="5.3958149"
       cy="16.501635"
       fx="5.3958149"
       fy="16.501635"
       r="16.793785" />
    <radialGradient
       inkscape:collect="always"
       xlink:href="#linearGradient3811-7"
       id="radialGradient3148"
       gradientUnits="userSpaceOnUse"
       gradientTransform="matrix(1.2232969,-0.17119428,0.13859442,0.99034922,-3.4919031,1.0829862)"
       cx="5.3958149"
       cy="16.501635"
       fx="5.3958149"
       fy="16.501635"
       r="16.793785" />
    <radialGradient
       inkscape:collect="always"
       xlink:href="#linearGradient3811-7"
       id="radialGradient3158"
       gradientUnits="userSpaceOnUse"
       gradientTransform="matrix(1.2232969,-0.17119428,0.13859442,0.99034922,-3.4919031,1.0829862)"
       cx="5.3958149"
       cy="16.501635"
       fx="5.3958149"
       fy="16.501635"
       r="16.793785" />
  </defs>
  <sodipodi:namedview
     id="base"
     pagecolor="#ffffff"
     bordercolor="#666666"
     borderopacity="1.0"
     inkscape:pageopacity="1"
     inkscape:pageshadow="2"
     inkscape:zoom="1"
     inkscape:cx="-69.284033"
     inkscape:cy="-153.28927"
     inkscape:document-units="px"
     inkscape:current-layer="layer1"
     showgrid="false"
     borderlayer="true"
     inkscape:showpageshadow="false"
     inkscape:window-width="1768"
     inkscape:window-height="976"
     inkscape:window-x="476"
     inkscape:window-y="135"
     inkscape:window-maximized="0" />
  <metadata
     id="metadata7">
    <rdf:RDF>
      <cc:Work
         rdf:about="">
        <dc:format>image/svg+xml</dc:format>
        <dc:type
           rdf:resource="http://purl.org/dc/dcmitype/StillImage" />
        <dc:title></dc:title>
      </cc:Work>
    </rdf:RDF>
  </metadata>
  <g
     inkscape:label="Ebene 1"
     inkscape:groupmode="layer"
     id="layer1"
     transform="translate(0,-972.36218)">
    <g
       id="g3763"
       transform="matrix(1.0310135,0,0,1.0310135,-0.48451486,-29.054862)"
       style="filter:url(#filter3852)">
      <g
         id="g3133"
         transform="matrix(0.46251607,0,0,0.46251607,3.0656813,561.05358)">
        <path
           sodipodi:type="arc"
           style="fill:#5f7c9a;fill-opacity:1;stroke:none;filter:url(#filter3852)"
           id="path3813"
           sodipodi:cx="12.020815"
           sodipodi:cy="13.001635"
           sodipodi:rx="16.793785"
           sodipodi:ry="16.793785"
           d="m 28.8146,13.001635 c 0,9.274951 -7.518834,16.793785 -16.793785,16.793785 -9.2749515,0 -16.7937852,-7.518834 -16.7937852,-16.793785 0,-9.2749518 7.5188337,-16.7937855 16.7937852,-16.7937855 9.274951,0 16.793785,7.5188337 16.793785,16.7937855 z"
           transform="translate(13.319751,1011.71)" />
        <path
           transform="translate(13.301651,1011.71)"
           d="m 28.8146,13.001635 c 0,9.274951 -7.518834,16.793785 -16.793785,16.793785 -9.2749515,0 -16.7937852,-7.518834 -16.7937852,-16.793785 0,-9.2749518 7.5188337,-16.7937855 16.7937852,-16.7937855 9.274951,0 16.793785,7.5188337 16.793785,16.7937855 z"
           sodipodi:ry="16.793785"
           sodipodi:rx="16.793785"
           sodipodi:cy="13.001635"
           sodipodi:cx="12.020815"
           id="path3815"
           style="fill:url(#radialGradient3138);fill-opacity:1;stroke:none;filter:url(#filter3852)"
           sodipodi:type="arc" />
        <path
           transform="matrix(0.9699194,0,0,0.9699194,8.5286811,1007.9178)"
           style="fill:#5f9a63;fill-opacity:1;stroke:none;filter:url(#filter3852)"
           d="m 33.550934,23.207177 c 0.156428,-0.429108 0.26396,-0.876671 0.38663,-1.320935 -0.0075,-0.141558 0.0016,-0.291261 0,-0.4189 -0.01367,-1.031736 -0.453462,-2.014601 -0.644383,-3.028603 -0.245647,-1.304644 -0.335558,-2.6396 -0.644384,-3.930738 C 32.433881,13.609575 32.125455,12.734864 31.811099,11.866028 31.578977,11.224635 31.25433,10.61211 31.037839,9.9651488 30.783855,9.2062198 30.747237,8.3782129 30.425675,7.6453685 29.972079,6.6115712 29.315705,5.6741738 28.589182,4.8100813 27.94872,4.0483686 27.196121,3.3751168 26.398278,2.780222 25.795838,2.3311125 25.166609,1.8898387 24.465128,1.6203318 23.525317,1.2592708 22.501837,0.93140855 21.500964,1.0403867 20.965428,1.0991545 20.531393,1.51888 20.018882,1.6847701 19.161092,1.9625252 18.230479,1.9743818 17.37691,2.2647152 16.994858,2.394726 16.641602,2.598145 16.281458,2.780222 c -0.523199,0.264558 -1.032511,0.5557162 -1.54652,0.8376984 -0.387772,0.2128012 -0.867554,0.3125002 -1.15989,0.6443835 -0.305815,0.3472453 -0.706737,0.8674947 -0.515507,1.2887668 0.273503,0.6026274 1.240076,0.469936 1.868712,0.6766542 0.68153,0.2240392 1.541819,0.1181542 2.062027,0.6121127 0.3646,0.3463175 0.05364,1.2189673 0.515507,1.4176436 0.405357,0.1745506 0.869388,-0.2532169 1.224328,-0.5155068 0.244997,-0.1809428 0.355832,-0.5025159 0.579945,-0.7088218 0.271488,-0.2498145 0.579466,-0.4652963 0.902137,-0.6443834 0.446461,-0.2476494 1.010878,-0.2713627 1.417644,-0.5799451 0.498968,-0.378485 0.545451,-1.3607316 1.15989,-1.4820819 0.613253,-0.1209379 1.465179,0.326522 1.610958,0.9344075 0.111132,0.4633375 -0.434836,0.8566692 -0.77326,1.1920579 -0.253889,0.2516704 -0.644987,0.331677 -0.902137,0.579945 -0.300335,0.2901272 -0.51689,0.6602611 -0.708821,1.0310135 -0.199907,0.3862177 -0.225427,0.8526482 -0.451069,1.2243286 -0.181426,0.2989939 -0.431963,0.5597372 -0.708822,0.7732603 -0.289306,0.223214 -0.601623,0.497876 -0.966575,0.515507 -0.392967,0.01959 -0.725827,-0.316212 -1.095452,-0.451069 -0.296754,-0.108153 -0.597884,-0.3747733 -0.902136,-0.2899208 -0.31531,0.087636 -0.371251,0.5605618 -0.644384,0.7409898 -1.807138,1.19381 -5.729415,1.894899 -6.186081,1.997588 -6.3365799,4.199628 -4.9347655,4.911233 1.031014,2.770849 0.760661,-0.256413 3.571733,1.417128 5.219506,0.805531 0.694055,-0.25765 0.677322,-1.676531 1.417643,-1.675397 1.396174,0 1.403236,3.690719 2.706411,3.189646 1.062547,-0.408487 -0.835375,-2.52258 -0.128877,-3.415232 0.36069,-0.455708 1.195187,-0.08042 1.707616,-0.354359 1.011049,-0.540973 1.336073,-2.694038 2.448657,-2.41649 0.814801,0.203316 0.930356,1.598277 0.741041,2.41649 -0.162301,0.701398 -1.575097,0.864814 -1.482082,1.578688 0.209581,1.608587 4.277828,0.962657 4.124054,2.577533 -0.12479,1.310522 -2.377249,1.18515 -3.672985,1.417644 -1.526486,0.27394 -3.130533,0.107741 -4.67178,-0.06392 -1.576327,-0.176406 -3.053414,-0.959049 -4.639561,-0.966575 -1.652131,-0.01031 -5.460888,0.284457 -6.6150952,1.466617 -0.7956475,0.814913 -1.1663505,2.374424 -0.5799451,3.350794 0.7639532,1.271961 3.0231373,0.509526 4.2207113,1.385476 0.91949,0.67253 1.748885,1.659106 1.997589,2.770848 0.393287,1.757981 -2.281308,4.051059 -0.998794,5.316112 0.877694,0.865742 4.230713,-0.791509 5.390766,-1.208863 2.023783,-0.728102 2.714258,-1.853041 4.170574,-3.43575 1.5586,-1.693852 2.238924,-4.890715 4.270849,-5.972248 1.743418,-0.927913 4.186038,2.118114 5.83167,1.095451 z"
           id="path3817"
           inkscape:connector-curvature="0"
           sodipodi:nodetypes="cccsssssssscssssssssccsscsssssscsssscccccsssssscccsscssssccc" />
      </g>
      <g
         transform="matrix(0.46251607,0,0,0.46251607,35.642918,561.05358)"
         id="g3140">
        <path
           transform="translate(13.319751,1011.71)"
           d="m 28.8146,13.001635 c 0,9.274951 -7.518834,16.793785 -16.793785,16.793785 -9.2749515,0 -16.7937852,-7.518834 -16.7937852,-16.793785 0,-9.2749518 7.5188337,-16.7937855 16.7937852,-16.7937855 9.274951,0 16.793785,7.5188337 16.793785,16.7937855 z"
           sodipodi:ry="16.793785"
           sodipodi:rx="16.793785"
           sodipodi:cy="13.001635"
           sodipodi:cx="12.020815"
           id="path3142"
           style="fill:#5f7c9a;fill-opacity:1;stroke:none;filter:url(#filter3852)"
           sodipodi:type="arc" />
        <path
           sodipodi:type="arc"
           style="fill:url(#radialGradient3148);fill-opacity:1;stroke:none;filter:url(#filter3852)"
           id="path3144"
           sodipodi:cx="12.020815"
           sodipodi:cy="13.001635"
           sodipodi:rx="16.793785"
           sodipodi:ry="16.793785"
           d="m 28.8146,13.001635 c 0,9.274951 -7.518834,16.793785 -16.793785,16.793785 -9.2749515,0 -16.7937852,-7.518834 -16.7937852,-16.793785 0,-9.2749518 7.5188337,-16.7937855 16.7937852,-16.7937855 9.274951,0 16.793785,7.5188337 16.793785,16.7937855 z"
           transform="translate(13.301651,1011.71)" />
        <path
           sodipodi:nodetypes="cccsssssssscssssssssccsscsssssscsssscccccsssssscccsscssssccc"
           inkscape:connector-curvature="0"
           id="path3146"
           d="m 33.550934,23.207177 c 0.156428,-0.429108 0.26396,-0.876671 0.38663,-1.320935 -0.0075,-0.141558 0.0016,-0.291261 0,-0.4189 -0.01367,-1.031736 -0.453462,-2.014601 -0.644383,-3.028603 -0.245647,-1.304644 -0.335558,-2.6396 -0.644384,-3.930738 C 32.433881,13.609575 32.125455,12.734864 31.811099,11.866028 31.578977,11.224635 31.25433,10.61211 31.037839,9.9651488 30.783855,9.2062198 30.747237,8.3782129 30.425675,7.6453685 29.972079,6.6115712 29.315705,5.6741738 28.589182,4.8100813 27.94872,4.0483686 27.196121,3.3751168 26.398278,2.780222 25.795838,2.3311125 25.166609,1.8898387 24.465128,1.6203318 23.525317,1.2592708 22.501837,0.93140855 21.500964,1.0403867 20.965428,1.0991545 20.531393,1.51888 20.018882,1.6847701 19.161092,1.9625252 18.230479,1.9743818 17.37691,2.2647152 16.994858,2.394726 16.641602,2.598145 16.281458,2.780222 c -0.523199,0.264558 -1.032511,0.5557162 -1.54652,0.8376984 -0.387772,0.2128012 -0.867554,0.3125002 -1.15989,0.6443835 -0.305815,0.3472453 -0.706737,0.8674947 -0.515507,1.2887668 0.273503,0.6026274 1.240076,0.469936 1.868712,0.6766542 0.68153,0.2240392 1.541819,0.1181542 2.062027,0.6121127 0.3646,0.3463175 0.05364,1.2189673 0.515507,1.4176436 0.405357,0.1745506 0.869388,-0.2532169 1.224328,-0.5155068 0.244997,-0.1809428 0.355832,-0.5025159 0.579945,-0.7088218 0.271488,-0.2498145 0.579466,-0.4652963 0.902137,-0.6443834 0.446461,-0.2476494 1.010878,-0.2713627 1.417644,-0.5799451 0.498968,-0.378485 0.545451,-1.3607316 1.15989,-1.4820819 0.613253,-0.1209379 1.465179,0.326522 1.610958,0.9344075 0.111132,0.4633375 -0.434836,0.8566692 -0.77326,1.1920579 -0.253889,0.2516704 -0.644987,0.331677 -0.902137,0.579945 -0.300335,0.2901272 -0.51689,0.6602611 -0.708821,1.0310135 -0.199907,0.3862177 -0.225427,0.8526482 -0.451069,1.2243286 -0.181426,0.2989939 -0.431963,0.5597372 -0.708822,0.7732603 -0.289306,0.223214 -0.601623,0.497876 -0.966575,0.515507 -0.392967,0.01959 -0.725827,-0.316212 -1.095452,-0.451069 -0.296754,-0.108153 -0.597884,-0.3747733 -0.902136,-0.2899208 -0.31531,0.087636 -0.371251,0.5605618 -0.644384,0.7409898 -1.807138,1.19381 -5.729415,1.894899 -6.186081,1.997588 -6.3365799,4.199628 -4.9347655,4.911233 1.031014,2.770849 0.760661,-0.256413 3.571733,1.417128 5.219506,0.805531 0.694055,-0.25765 0.677322,-1.676531 1.417643,-1.675397 1.396174,0 1.403236,3.690719 2.706411,3.189646 1.062547,-0.408487 -0.835375,-2.52258 -0.128877,-3.415232 0.36069,-0.455708 1.195187,-0.08042 1.707616,-0.354359 1.011049,-0.540973 1.336073,-2.694038 2.448657,-2.41649 0.814801,0.203316 0.930356,1.598277 0.741041,2.41649 -0.162301,0.701398 -1.575097,0.864814 -1.482082,1.578688 0.209581,1.608587 4.277828,0.962657 4.124054,2.577533 -0.12479,1.310522 -2.377249,1.18515 -3.672985,1.417644 -1.526486,0.27394 -3.130533,0.107741 -4.67178,-0.06392 -1.576327,-0.176406 -3.053414,-0.959049 -4.639561,-0.966575 -1.652131,-0.01031 -5.460888,0.284457 -6.6150952,1.466617 -0.7956475,0.814913 -1.1663505,2.374424 -0.5799451,3.350794 0.7639532,1.271961 3.0231373,0.509526 4.2207113,1.385476 0.91949,0.67253 1.748885,1.659106 1.997589,2.770848 0.393287,1.757981 -2.281308,4.051059 -0.998794,5.316112 0.877694,0.865742 4.230713,-0.791509 5.390766,-1.208863 2.023783,-0.728102 2.714258,-1.853041 4.170574,-3.43575 1.5586,-1.693852 2.238924,-4.890715 4.270849,-5.972248 1.743418,-0.927913 4.186038,2.118114 5.83167,1.095451 z"
           style="fill:#5f9a63;fill-opacity:1;stroke:none;filter:url(#filter3852)"
           transform="matrix(0.9699194,0,0,0.9699194,8.5286811,1007.9178)" />
      </g>
      <g
         id="g3150"
         transform="matrix(0.46251607,0,0,0.46251607,18.887617,508.58709)">
        <path
           sodipodi:type="arc"
           style="fill:#5f7c9a;fill-opacity:1;stroke:none;filter:url(#filter3852)"
           id="path3152"
           sodipodi:cx="12.020815"
           sodipodi:cy="13.001635"
           sodipodi:rx="16.793785"
           sodipodi:ry="16.793785"
           d="m 28.8146,13.001635 c 0,9.274951 -7.518834,16.793785 -16.793785,16.793785 -9.2749515,0 -16.7937852,-7.518834 -16.7937852,-16.793785 0,-9.2749518 7.5188337,-16.7937855 16.7937852,-16.7937855 9.274951,0 16.793785,7.5188337 16.793785,16.7937855 z"
           transform="translate(13.319751,1011.71)" />
        <path
           transform="translate(13.301651,1011.71)"
           d="m 28.8146,13.001635 c 0,9.274951 -7.518834,16.793785 -16.793785,16.793785 -9.2749515,0 -16.7937852,-7.518834 -16.7937852,-16.793785 0,-9.2749518 7.5188337,-16.7937855 16.7937852,-16.7937855 9.274951,0 16.793785,7.5188337 16.793785,16.7937855 z"
           sodipodi:ry="16.793785"
           sodipodi:rx="16.793785"
           sodipodi:cy="13.001635"
           sodipodi:cx="12.020815"
           id="path3154"
           style="fill:url(#radialGradient3158);fill-opacity:1;stroke:none;filter:url(#filter3852)"
           sodipodi:type="arc" />
        <path
           transform="matrix(0.9699194,0,0,0.9699194,8.5286811,1007.9178)"
           style="fill:#5f9a63;fill-opacity:1;stroke:none;filter:url(#filter3852)"
           d="m 33.550934,23.207177 c 0.156428,-0.429108 0.26396,-0.876671 0.38663,-1.320935 -0.0075,-0.141558 0.0016,-0.291261 0,-0.4189 -0.01367,-1.031736 -0.453462,-2.014601 -0.644383,-3.028603 -0.245647,-1.304644 -0.335558,-2.6396 -0.644384,-3.930738 C 32.433881,13.609575 32.125455,12.734864 31.811099,11.866028 31.578977,11.224635 31.25433,10.61211 31.037839,9.9651488 30.783855,9.2062198 30.747237,8.3782129 30.425675,7.6453685 29.972079,6.6115712 29.315705,5.6741738 28.589182,4.8100813 27.94872,4.0483686 27.196121,3.3751168 26.398278,2.780222 25.795838,2.3311125 25.166609,1.8898387 24.465128,1.6203318 23.525317,1.2592708 22.501837,0.93140855 21.500964,1.0403867 20.965428,1.0991545 20.531393,1.51888 20.018882,1.6847701 19.161092,1.9625252 18.230479,1.9743818 17.37691,2.2647152 16.994858,2.394726 16.641602,2.598145 16.281458,2.780222 c -0.523199,0.264558 -1.032511,0.5557162 -1.54652,0.8376984 -0.387772,0.2128012 -0.867554,0.3125002 -1.15989,0.6443835 -0.305815,0.3472453 -0.706737,0.8674947 -0.515507,1.2887668 0.273503,0.6026274 1.240076,0.469936 1.868712,0.6766542 0.68153,0.2240392 1.541819,0.1181542 2.062027,0.6121127 0.3646,0.3463175 0.05364,1.2189673 0.515507,1.4176436 0.405357,0.1745506 0.869388,-0.2532169 1.224328,-0.5155068 0.244997,-0.1809428 0.355832,-0.5025159 0.579945,-0.7088218 0.271488,-0.2498145 0.579466,-0.4652963 0.902137,-0.6443834 0.446461,-0.2476494 1.010878,-0.2713627 1.417644,-0.5799451 0.498968,-0.378485 0.545451,-1.3607316 1.15989,-1.4820819 0.613253,-0.1209379 1.465179,0.326522 1.610958,0.9344075 0.111132,0.4633375 -0.434836,0.8566692 -0.77326,1.1920579 -0.253889,0.2516704 -0.644987,0.331677 -0.902137,0.579945 -0.300335,0.2901272 -0.51689,0.6602611 -0.708821,1.0310135 -0.199907,0.3862177 -0.225427,0.8526482 -0.451069,1.2243286 -0.181426,0.2989939 -0.431963,0.5597372 -0.708822,0.7732603 -0.289306,0.223214 -0.601623,0.497876 -0.966575,0.515507 -0.392967,0.01959 -0.725827,-0.316212 -1.095452,-0.451069 -0.296754,-0.108153 -0.597884,-0.3747733 -0.902136,-0.2899208 -0.31531,0.087636 -0.371251,0.5605618 -0.644384,0.7409898 -1.807138,1.19381 -5.729415,1.894899 -6.186081,1.997588 -6.3365799,4.199628 -4.9347655,4.911233 1.031014,2.770849 0.760661,-0.256413 3.571733,1.417128 5.219506,0.805531 0.694055,-0.25765 0.677322,-1.676531 1.417643,-1.675397 1.396174,0 1.403236,3.690719 2.706411,3.189646 1.062547,-0.408487 -0.835375,-2.52258 -0.128877,-3.415232 0.36069,-0.455708 1.195187,-0.08042 1.707616,-0.354359 1.011049,-0.540973 1.336073,-2.694038 2.448657,-2.41649 0.814801,0.203316 0.930356,1.598277 0.741041,2.41649 -0.162301,0.701398 -1.575097,0.864814 -1.482082,1.578688 0.209581,1.608587 4.277828,0.962657 4.124054,2.577533 -0.12479,1.310522 -2.377249,1.18515 -3.672985,1.417644 -1.526486,0.27394 -3.130533,0.107741 -4.67178,-0.06392 -1.576327,-0.176406 -3.053414,-0.959049 -4.639561,-0.966575 -1.652131,-0.01031 -5.460888,0.284457 -6.6150952,1.466617 -0.7956475,0.814913 -1.1663505,2.374424 -0.5799451,3.350794 0.7639532,1.271961 3.0231373,0.509526 4.2207113,1.385476 0.91949,0.67253 1.748885,1.659106 1.997589,2.770848 0.393287,1.757981 -2.281308,4.051059 -0.998794,5.316112 0.877694,0.865742 4.230713,-0.791509 5.390766,-1.208863 2.023783,-0.728102 2.714258,-1.853041 4.170574,-3.43575 1.5586,-1.693852 2.238924,-4.890715 4.270849,-5.972248 1.743418,-0.927913 4.186038,2.118114 5.83167,1.095451 z"
           id="path3156"
           inkscape:connector-curvature="0"
           sodipodi:nodetypes="cccsssssssscssssssssccsscsssssscsssscccccsssssscccsscssssccc" />
      </g>
      <path
         style="fill:none;stroke:#7b7b7b;stroke-width:1.87500000000000000;stroke-linecap:butt;stroke-linejoin:bevel;stroke-miterlimit:4;stroke-opacity:1;stroke-dasharray:none;marker-start:url(#Arrow2Mstart);marker-mid:url(#DotS);marker-end:url(#Arrow2Mend)"
         d="M 17.482233,53.312501 31.25,24.125001 l 13.856154,29.1875"
         id="path3160"
         inkscape:connector-curvature="0"
         transform="matrix(0.9699194,0,0,0.9699194,0.46994036,971.29382)"
         sodipodi:nodetypes="ccc" />
    </g>
    <text
       xml:space="preserve"
       style="font-size:24px;font-style:normal;font-weight:normal;text-align:end;line-height:125%;letter-spacing:0px;word-spacing:0px;text-anchor:end;fill:#000000;fill-opacity:1;stroke:none;font-family:Sans"
       x="160.61426"
       y="1014.5334"
       id="text3759"
       sodipodi:linespacing="125%"><tspan
         sodipodi:role="line"
         x="160.61426"
         y="1014.5334"
         id="tspan3017">Worldstate</tspan><tspan
         sodipodi:role="line"
         x="160.61426"
         y="1044.5334"
         id="tspan3095">Picker</tspan></text>
  </g>
</svg>
